<svg width="21" height="22" viewBox="0 0 21 22" fill="none" xmlns="http://www.w3.org/2000/svg">
<path fill-rule="evenodd" clip-rule="evenodd" d="M8.42259 20.8087C4.60859 20.8087 1.35059 20.2317 1.35059 17.9217C1.35059 15.6117 4.58759 13.5107 8.42259 13.5107C12.2366 13.5107 15.4946 15.5917 15.4946 17.9007C15.4946 20.2097 12.2576 20.8087 8.42259 20.8087Z" stroke="#130F26" stroke-width="1.5" stroke-linecap="round" stroke-linejoin="round"/>
<path fill-rule="evenodd" clip-rule="evenodd" d="M8.42268 10.2164C10.9257 10.2164 12.9557 8.18639 12.9557 5.68339C12.9557 3.17939 10.9257 1.15039 8.42268 1.15039C5.91968 1.15039 3.88968 3.17939 3.88968 5.68339C3.88068 8.17739 5.89668 10.2074 8.39068 10.2164H8.42268Z" stroke="#130F26" stroke-width="1.5" stroke-linecap="round" stroke-linejoin="round"/>
<path d="M17.6318 7.12988V11.1399" stroke="#130F26" stroke-width="1.5" stroke-linecap="round" stroke-linejoin="round"/>
<path d="M19.6779 9.13477H15.5879" stroke="#130F26" stroke-width="1.5" stroke-linecap="round" stroke-linejoin="round"/>
</svg>
