<svg width="20" height="21" viewBox="0 0 20 21" fill="none" xmlns="http://www.w3.org/2000/svg">
<mask id="mask0" style="mask-type:alpha" maskUnits="userSpaceOnUse" x="5" y="0" width="10" height="9">
<path fill-rule="evenodd" clip-rule="evenodd" d="M5.21094 0.5H14.2729V8.8057H5.21094V0.5Z" fill="white"/>
</mask>
<g mask="url(#mask0)">
<path fill-rule="evenodd" clip-rule="evenodd" d="M13.5229 8.80551C13.1089 8.80551 12.7729 8.46951 12.7729 8.05551V5.02351C12.7729 3.35651 11.4179 1.99951 9.75094 1.99951C8.93994 2.02751 8.17994 2.30751 7.60594 2.87551C7.03194 3.44451 6.71394 4.20151 6.71094 5.00851V8.05551C6.71094 8.46951 6.37494 8.80551 5.96094 8.80551C5.54694 8.80551 5.21094 8.46951 5.21094 8.05551V5.02351C5.21594 3.79451 5.69094 2.66051 6.54994 1.81051C7.40794 0.959512 8.55994 0.534512 9.75394 0.499512C12.2449 0.499512 14.2729 2.52951 14.2729 5.02351V8.05551C14.2729 8.46951 13.9369 8.80551 13.5229 8.80551Z" fill="#130F26"/>
</g>
<mask id="mask1" style="mask-type:alpha" maskUnits="userSpaceOnUse" x="0" y="4" width="20" height="17">
<path fill-rule="evenodd" clip-rule="evenodd" d="M0 4.97461H19.4998V20.4996H0V4.97461Z" fill="white"/>
</mask>
<g mask="url(#mask1)">
<path fill-rule="evenodd" clip-rule="evenodd" d="M5.008 6.47461C3.074 6.47461 1.5 8.04661 1.5 9.97961V15.4956C1.5 17.4276 3.074 18.9996 5.008 18.9996H14.492C16.426 18.9996 18 17.4276 18 15.4956V9.97961C18 8.04661 16.426 6.47461 14.492 6.47461H5.008ZM14.492 20.4996H5.008C2.247 20.4996 0 18.2546 0 15.4956V9.97961C0 7.21961 2.247 4.97461 5.008 4.97461H14.492C17.254 4.97461 19.5 7.21961 19.5 9.97961V15.4956C19.5 18.2546 17.254 20.4996 14.492 20.4996Z" fill="#130F26"/>
</g>
</svg>
