<svg width="328" height="56" viewBox="0 0 328 56" fill="none" xmlns="http://www.w3.org/2000/svg">
<rect width="328" height="56" rx="5.09091" fill="#103053"/>
<path fill-rule="evenodd" clip-rule="evenodd" d="M213.9 27.6333C209.214 37.2638 188.485 45.1038 167.758 45.1038C147.01 45.1038 133.925 37.2638 138.612 27.6333C143.28 18.0406 164.026 10.1816 184.756 10.1816C205.503 10.1816 218.585 18.0406 213.901 27.6333H213.9Z" fill="#151317"/>
<path fill-rule="evenodd" clip-rule="evenodd" d="M183.987 11.0605C203.891 11.0605 216.445 18.4118 211.949 27.3856C207.453 36.3944 187.566 43.7289 167.68 43.7289C147.775 43.7289 135.222 36.3944 139.719 27.3856C144.197 18.4111 164.101 11.0605 183.987 11.0605Z" fill="#647387"/>
<path fill-rule="evenodd" clip-rule="evenodd" d="M180.814 12.5945C198.796 12.5945 210.114 19.169 206.024 27.209C201.951 35.2658 183.952 41.8418 166.005 41.8418C148.022 41.8418 136.703 35.2658 140.776 27.209C143.421 22.0265 151.794 17.4774 162.214 14.8687C162.954 14.6737 163.712 14.5159 164.471 14.3392C169.654 13.2294 175.242 12.5938 180.813 12.5938L180.814 12.5945Z" fill="#151317"/>
<path fill-rule="evenodd" clip-rule="evenodd" d="M204.344 20.6227C205.238 22.0874 205.404 23.7354 204.696 25.4634C204.033 26.7717 203.272 27.8248 202.139 28.8605C196.261 34.2176 183.032 38.2125 169.822 38.2125C154.246 38.2125 144.424 32.6612 147.972 25.8561C150.41 21.1703 158.673 16.9099 168.568 14.8067C169.731 14.5594 170.914 14.3652 172.115 14.1885C169.787 14.4183 167.509 14.7536 165.27 15.2307C154.3 17.6176 144.997 21.4721 142.29 26.8103C138.364 34.571 149.244 40.899 166.524 40.899C180.682 40.899 194.861 36.6568 201.672 30.8408C202.442 30.1877 203.342 29.2656 204.048 28.2823C204.34 27.8852 204.596 27.4823 204.809 27.0757C206.028 24.7419 205.795 22.5325 204.344 20.6227H204.344Z" fill="#1254FF"/>
<path fill-rule="evenodd" clip-rule="evenodd" d="M131.876 26.0129C131.557 26.514 131.237 26.8835 130.925 27.1126L130.913 27.122C130.553 27.4057 130.082 27.5489 129.512 27.5489C129.141 27.5489 128.887 27.4748 128.816 27.3497C128.809 27.33 128.642 26.8697 129.157 25.2093C129.499 24.1569 129.896 23.4057 130.339 22.9751C130.888 22.4246 131.478 22.1686 132.195 22.1686C132.42 22.1686 132.607 22.2035 132.721 22.266C132.806 22.3148 132.874 22.3526 132.9 22.6624L133.005 23.8748H138.72C138.361 24.3504 138.054 24.8624 137.808 25.3991H132.267L131.876 26.0129ZM145.731 26.3657C145.518 27.0442 145.243 27.5373 144.936 27.7904C144.624 28.0413 144.36 28.1533 144.083 28.1533C144.024 28.1533 143.988 28.1482 143.966 28.1431C143.955 28.0682 143.936 27.802 144.127 27.194C144.309 26.5751 144.577 26.1046 144.9 25.834C145.197 25.5977 145.471 25.4922 145.789 25.4922C145.828 25.4922 145.856 25.4944 145.875 25.4966C145.887 25.5809 145.894 25.8311 145.731 26.3657H145.731ZM159.38 26.3518C159.204 26.9511 158.968 27.3984 158.716 27.61C158.509 27.7846 158.336 27.8682 158.184 27.8682L158.141 27.8675C158.145 27.7628 158.169 27.5533 158.277 27.2028C158.513 26.4348 158.779 26.1046 158.961 25.9635C159.17 25.794 159.349 25.7046 159.537 25.6784C159.526 25.8057 159.489 26.0166 159.384 26.338L159.38 26.3518ZM199.541 20.3875L201.056 15.5293L193.266 18.7606L193.067 18.8435L192.586 20.3875H191.041L190.978 20.5897C190.326 20.2988 189.683 20.1562 189.013 20.1562C188.488 20.1562 187.989 20.234 187.53 20.3875H181.428L180.274 24.0755C180.275 23.9249 180.271 23.77 180.261 23.6144C180.206 22.8144 179.925 22.1046 179.469 21.6188C178.902 20.97 178.101 20.5518 177.091 20.3751C176.341 20.226 175.325 20.1569 173.891 20.1569C173.053 20.1569 172.261 20.2129 171.471 20.3308C170.577 20.4689 169.922 20.65 169.408 20.9002C168.648 21.2297 168.017 21.6311 167.535 22.0929C167.11 22.4798 166.722 22.9729 166.349 23.5984C166.272 23.2071 166.155 22.8297 166 22.4755C165.506 21.418 164.393 20.1562 161.898 20.1562C161.282 20.1562 160.7 20.234 160.122 20.3933L160.123 20.3875H153.459L152.5 23.4522C152.389 23.1351 152.243 22.8268 152.064 22.5358C151.06 20.9569 149.206 20.1562 146.554 20.1562C144.378 20.1562 142.441 20.7395 140.798 21.8893C140.496 22.1024 140.205 22.3308 139.936 22.5686V22.5489C139.936 20.2886 139.322 18.6893 138.059 17.6602C136.96 16.722 135.338 16.2653 133.101 16.2653C130.433 16.2653 128.085 16.9838 126.121 18.402C124.167 19.8253 122.778 21.8522 121.992 24.4268C121.355 26.4377 121.283 28.1628 121.779 29.5569C122.31 31.0122 123.189 32.0493 124.391 32.6391C125.471 33.1788 126.943 33.4522 128.765 33.4522C130.282 33.4522 131.608 33.2398 132.707 32.8195C133.817 32.4166 134.867 31.7868 135.831 30.9489C136.271 30.5533 136.755 30.0297 137.196 29.4704C137.432 30.5649 138.005 31.338 138.45 31.7977C139.536 32.8835 141.149 33.434 143.248 33.434C145.453 33.434 147.413 32.8464 149.072 31.6849C149.484 31.3969 149.869 31.0798 150.218 30.7424L148.24 37.0602H155.211L156.475 33.0493C157.083 33.3053 157.783 33.4348 158.557 33.4348C160.18 33.4348 161.699 32.8915 163.071 31.8202C163.463 31.5118 163.832 31.1577 164.168 30.7657C164.291 31.2711 164.539 31.7308 164.902 32.1337C165.668 33.0093 166.871 33.4348 168.579 33.4348C169.706 33.4348 170.761 33.266 171.717 32.9329C171.875 32.8777 172.035 32.8144 172.196 32.7438L172.349 33.2028H184.372L185.73 28.8631C186.295 27.0668 186.813 26.3489 187.07 26.082C187.318 25.8602 187.485 25.8297 187.627 25.8297C187.644 25.8297 187.798 25.8348 188.175 26.0006L189.112 26.4151L189.557 25.8784L190.869 25.8813L190.293 27.7206C189.843 29.09 189.691 30.0668 189.816 30.794C189.946 31.6835 190.425 32.4195 191.165 32.8668C191.798 33.2544 192.712 33.434 194.043 33.434C195.014 33.434 196.097 33.3191 197.264 33.0908L197.831 32.9802L198.133 32.9206L199.299 27.1962L197.211 27.8086L197.809 25.8828H200.099L201.815 20.3875H199.541Z" fill="#363A3F"/>
<path fill-rule="evenodd" clip-rule="evenodd" d="M132.46 25.7516L132.173 26.2025C131.832 26.7406 131.482 27.1421 131.131 27.3996C130.708 27.7319 130.163 27.9014 129.512 27.9014C128.988 27.9014 128.651 27.7726 128.507 27.5181C128.46 27.4359 128.253 26.9326 128.82 25.1057C129.18 23.9952 129.608 23.193 130.093 22.7217C130.702 22.1123 131.389 21.8163 132.195 21.8163C132.487 21.8163 132.721 21.8643 132.891 21.9574C133.092 22.0708 133.216 22.2177 133.251 22.6323L133.328 23.5225H139.469C138.863 24.1916 138.384 24.937 138.037 25.7516H132.46ZM146.069 26.4679C145.83 27.2243 145.525 27.7617 145.162 28.0606C144.784 28.3646 144.44 28.5057 144.083 28.5057C143.764 28.5057 143.699 28.3945 143.656 28.3196C143.639 28.2919 143.499 28.0185 143.791 27.0876C143.995 26.3966 144.291 25.8839 144.673 25.5654C145.036 25.2745 145.391 25.1392 145.789 25.1392C146.083 25.1392 146.134 25.2265 146.189 25.321C146.196 25.3312 146.341 25.577 146.069 26.4679ZM157.941 27.0985C158.149 26.4221 158.427 25.9326 158.747 25.6839C159.053 25.4345 159.343 25.3174 159.658 25.3174C159.82 25.3174 159.83 25.337 159.868 25.4046C159.9 25.4599 159.941 25.7683 159.718 26.4505C159.52 27.1261 159.253 27.6214 158.942 27.8803C158.67 28.1094 158.422 28.2206 158.184 28.2206C157.895 28.2206 157.847 28.1406 157.815 28.0876C157.814 28.0854 157.704 27.8621 157.941 27.0985ZM165.784 26.9254C165.925 26.4228 166.021 25.9326 166.07 25.4636L167.92 25.6519C167.247 25.8803 166.7 26.1617 166.258 26.5072C166.091 26.6374 165.932 26.777 165.784 26.9254ZM199.84 25.5305L201.336 20.7399H199.061L200.496 16.1436L193.354 19.1057L192.845 20.7399H191.3L191.191 21.0876C190.464 20.6985 189.751 20.5094 189.013 20.5094C188.504 20.5094 188.026 20.5865 187.588 20.7399H181.688L178.189 31.9159L178.156 31.7188C178.078 31.2461 178.07 31.0119 178.077 30.8992C178.085 30.7806 178.128 30.5283 178.285 30.0003L179.685 25.5203C179.88 24.9305 179.954 24.3145 179.909 23.6374C179.859 22.9145 179.611 22.281 179.209 21.8563C178.696 21.2672 177.962 20.8861 177.032 20.7232C176.299 20.5777 175.301 20.5094 173.891 20.5094C173.07 20.5094 172.296 20.5646 171.523 20.6796C170.661 20.8126 170.036 20.985 169.558 21.2192C168.831 21.5334 168.232 21.913 167.78 22.3465C167.298 22.7865 166.86 23.3756 166.443 24.1472L166.105 24.7712C166.106 23.9886 165.963 23.2657 165.676 22.6163C165.227 21.6548 164.207 20.5086 161.898 20.5086C161.093 20.5086 160.332 20.6512 159.582 20.9436L159.645 20.7399H153.718L152.416 24.897C152.384 24.1057 152.165 23.3763 151.763 22.7188C150.83 21.2526 149.077 20.5094 146.554 20.5094C144.452 20.5094 142.583 21.0701 141 22.1785C140.472 22.5494 139.999 22.9574 139.583 23.3988V22.5486C139.583 20.401 139.011 18.8912 137.837 17.9341C136.8 17.0483 135.25 16.6177 133.101 16.6177C130.509 16.6177 128.229 17.3145 126.327 18.6883C124.437 20.065 123.093 22.0301 122.329 24.529C121.715 26.4672 121.642 28.1188 122.112 29.4396C122.61 30.8046 123.429 31.7741 124.545 32.3225C125.578 32.8388 126.998 33.1006 128.765 33.1006C130.238 33.1006 131.522 32.8948 132.581 32.4912C133.654 32.1006 134.669 31.4926 135.6 30.6825C136.219 30.1261 136.903 29.3297 137.44 28.5472C137.48 29.9821 138.135 30.9661 138.704 31.5537C139.717 32.5676 141.247 33.0825 143.248 33.0825C145.379 33.0825 147.271 32.5152 148.87 31.3952C149.763 30.7705 150.504 30.0257 151.078 29.1741L148.72 36.7086H154.952L156.259 32.5632C156.337 32.6025 156.417 32.6403 156.497 32.6745C157.088 32.945 157.78 33.0817 158.556 33.0817C160.099 33.0817 161.545 32.5639 162.854 31.5421C163.447 31.0766 163.977 30.5057 164.433 29.8425C164.387 30.8061 164.789 31.4825 165.163 31.897C165.861 32.6948 166.979 33.0825 168.579 33.0825C169.666 33.0825 170.683 32.9203 171.603 32.6003C171.863 32.5079 172.132 32.3937 172.405 32.2585L172.603 32.8505H184.113L185.393 28.7581C185.956 26.9705 186.484 26.1763 186.824 25.8294C187.093 25.5857 187.341 25.4774 187.627 25.4774C187.698 25.4774 187.906 25.497 188.317 25.6781L189.011 25.985L189.392 25.5254L191.348 25.5297L190.629 27.8243C190.196 29.1457 190.048 30.0716 190.164 30.7377C190.277 31.5232 190.698 32.1726 191.347 32.5646C191.924 32.9181 192.78 33.0825 194.043 33.0825C194.991 33.0825 196.051 32.969 197.196 32.745L197.834 32.6199L198.837 27.6992L197.287 28.1545C197.064 28.2192 196.864 28.2708 196.686 28.3094L197.549 25.5305H199.84Z" fill="#151317"/>
<path fill-rule="evenodd" clip-rule="evenodd" d="M134.95 29.9583C135.838 29.1591 136.887 27.8267 137.366 26.7249H132.996C132.622 27.3118 132.196 27.8267 131.734 28.1649C131.147 28.626 130.401 28.8754 129.512 28.8754C128.606 28.8754 127.985 28.5736 127.664 28.0042C127.326 27.4187 127.415 26.3511 127.894 24.8056C128.304 23.5445 128.801 22.6202 129.405 22.034C130.205 21.234 131.147 20.8427 132.196 20.8427C132.657 20.8427 133.048 20.9322 133.369 21.1096C133.937 21.4296 134.169 21.9271 134.222 22.5496H138.61C138.61 21.1634 138.361 19.6165 137.206 18.6754C136.353 17.9467 134.985 17.5918 133.102 17.5918C130.685 17.5918 128.624 18.2318 126.9 19.4754C125.194 20.7183 123.969 22.4965 123.257 24.8231C122.706 26.5649 122.635 28.0042 123.027 29.106C123.435 30.2253 124.075 31.0071 124.981 31.4514C125.87 31.8958 127.131 32.1271 128.766 32.1271C130.099 32.1271 131.271 31.9489 132.249 31.5765C133.225 31.2209 134.132 30.6703 134.95 29.9583ZM145.772 28.8216C146.287 28.3962 146.695 27.7205 146.998 26.7605C147.264 25.89 147.281 25.2318 147.016 24.8056C146.766 24.3787 146.358 24.1663 145.79 24.1663C145.167 24.1663 144.598 24.3787 144.065 24.8063C143.532 25.25 143.124 25.9074 142.857 26.8136C142.573 27.7205 142.555 28.378 142.822 28.8209C143.07 29.2485 143.497 29.4798 144.083 29.4798C144.688 29.4798 145.238 29.2485 145.771 28.8216H145.772ZM146.554 21.4834C148.739 21.4834 150.196 22.0689 150.942 23.242C151.529 24.202 151.617 25.3751 151.173 26.7605C150.676 28.3242 149.734 29.6042 148.313 30.5991C146.891 31.594 145.202 32.1096 143.249 32.1096C141.489 32.1096 140.209 31.6827 139.393 30.866C138.396 29.8354 138.149 28.4842 138.681 26.8129C139.161 25.2682 140.121 23.9882 141.561 22.9751C142.981 21.9809 144.652 21.4827 146.554 21.4827V21.4834ZM160.653 26.7256C160.387 27.6311 160.014 28.2529 159.569 28.626C159.126 28.9998 158.664 29.1954 158.184 29.1954C157.633 29.1954 157.224 28.9998 156.993 28.6078C156.744 28.218 156.763 27.6136 157.01 26.8129C157.278 25.9438 157.65 25.3031 158.131 24.9307C158.61 24.5394 159.108 24.3445 159.658 24.3445C160.138 24.3445 160.494 24.522 160.708 24.9118C160.937 25.3031 160.921 25.9082 160.653 26.7256ZM164.795 23.0282C164.313 21.9983 163.355 21.4827 161.898 21.4827C161.169 21.4827 160.458 21.6245 159.748 21.9278C159.232 22.1402 158.61 22.5663 157.864 23.2063L158.326 21.714H154.434L150.045 35.7358H154.239L155.768 30.8834C156.052 31.2922 156.443 31.594 156.905 31.7896C157.366 32.002 157.917 32.1096 158.557 32.1096C159.872 32.1096 161.116 31.6645 162.253 30.7765C163.408 29.8703 164.244 28.5911 164.777 26.9023C165.257 25.3569 165.257 24.0776 164.795 23.0282ZM173.304 28.858C173.571 28.5554 173.767 28.1467 173.928 27.6674L174.121 27.0449C173.482 27.2398 172.844 27.3998 172.168 27.5598C171.261 27.7736 170.657 27.9693 170.374 28.1823C170.07 28.3962 169.876 28.626 169.804 28.8936C169.697 29.1954 169.734 29.4442 169.912 29.6391C170.07 29.8354 170.374 29.9416 170.817 29.9416C171.298 29.9416 171.758 29.8354 172.221 29.6216C172.683 29.4078 173.038 29.1591 173.305 28.858H173.304ZM178.475 22.4973C178.742 22.7809 178.902 23.1896 178.938 23.7045C178.973 24.2376 178.919 24.7351 178.761 25.2151L177.356 29.7103C177.214 30.1903 177.125 30.5634 177.107 30.8303C177.089 31.0965 177.125 31.4514 177.196 31.8776H173.305C173.215 31.61 173.181 31.4173 173.181 31.274C173.181 31.1314 173.198 30.9183 173.233 30.634C172.542 31.114 171.883 31.4696 171.278 31.6827C170.461 31.9663 169.555 32.1096 168.579 32.1096C167.281 32.1096 166.393 31.8253 165.895 31.2565C165.398 30.7053 165.274 30.0129 165.54 29.178C165.772 28.4143 166.216 27.7736 166.855 27.2762C167.494 26.7773 168.508 26.4049 169.894 26.1736C171.545 25.8733 172.612 25.6587 173.127 25.5525C173.624 25.4282 174.158 25.2682 174.744 25.0907C174.887 24.6107 174.887 24.2725 174.744 24.0776C174.584 23.8813 174.246 23.7933 173.714 23.7933C173.021 23.7933 172.488 23.8994 172.079 24.0951C171.759 24.2551 171.457 24.5576 171.153 25.0013L167.299 24.6107C167.655 23.9525 168.028 23.4376 168.437 23.0653C168.828 22.6914 169.342 22.3714 169.964 22.1053C170.39 21.8922 170.977 21.7489 171.67 21.6427C172.382 21.5365 173.109 21.4827 173.892 21.4827C175.134 21.4827 176.132 21.5365 176.841 21.6791C177.551 21.8027 178.102 22.0689 178.475 22.4973ZM182.403 21.714H186.294L185.78 23.3663C186.383 22.6558 186.934 22.1583 187.414 21.8922C187.894 21.6071 188.426 21.4827 189.014 21.4827C189.636 21.4827 190.239 21.6609 190.861 22.0158L188.71 24.7882C188.267 24.5918 187.912 24.5045 187.628 24.5045C187.077 24.5045 186.596 24.7162 186.151 25.1263C185.549 25.73 184.979 26.8333 184.465 28.466L183.398 31.8776H179.222L182.404 21.714H182.403ZM197.739 21.714L198.947 17.8405L194.148 19.8303L193.562 21.714H192.016L191.128 24.5576H192.673L191.555 28.1285C191.182 29.266 191.038 30.0849 191.128 30.5991C191.199 31.0965 191.447 31.4878 191.857 31.7351C192.265 31.986 192.995 32.1096 194.043 32.1096C194.93 32.1096 195.926 32.002 197.01 31.7896L197.561 29.0878C196.955 29.266 196.494 29.3554 196.19 29.3554C195.837 29.3554 195.641 29.2311 195.569 29.0173C195.534 28.8754 195.569 28.5911 195.713 28.1649L196.833 24.5576H199.124L200.012 21.714H197.739Z" fill="white"/>
<path fill-rule="evenodd" clip-rule="evenodd" d="M31.9068 15.0329C32.038 15.0563 32.1621 15.1097 32.2693 15.189C32.3764 15.2683 32.4638 15.3713 32.5245 15.4899C32.5852 15.6086 32.6177 15.7397 32.6193 15.873C32.621 16.0063 32.5917 16.1381 32.5339 16.2582L36.9942 20.5827L36.8209 20.7641L32.391 16.469C32.3128 16.5548 32.2179 16.6236 32.1121 16.6714C32.0063 16.7191 31.8919 16.7447 31.7758 16.7465C31.6598 16.7484 31.5445 16.7265 31.4373 16.6822C31.33 16.6379 31.2329 16.5722 31.152 16.489L26.743 20.7617L26.5697 20.5803L31.0034 16.282C30.9379 16.1586 30.9039 16.021 30.9041 15.8813C30.9046 15.6718 30.9812 15.4696 31.1196 15.3124C31.258 15.1552 31.4489 15.0537 31.6566 15.0267V8.73824H31.9068V15.0329ZM48.9977 30.7366V34.3841C48.9893 35.5011 49.2021 36.6088 49.6238 37.6432C50.0455 38.6776 50.6677 39.6184 51.4546 40.4112C52.2416 41.204 53.1776 41.8333 54.2089 42.2627C55.2401 42.6921 56.3461 42.9132 57.4632 42.9132C58.5802 42.9132 59.6863 42.6921 60.7175 42.2627C61.7487 41.8333 62.6848 41.204 63.4717 40.4112C64.2586 39.6184 64.8808 38.6776 65.3025 37.6432C65.7242 36.6088 65.937 35.5011 65.9286 34.3841V30.7366C65.9185 28.7766 65.2308 26.8804 63.9822 25.3696C65.2429 23.899 65.9337 22.0246 65.9286 20.0876V17.2566C65.937 16.1396 65.7242 15.032 65.3025 13.9975C64.8808 12.9631 64.2586 12.0224 63.4717 11.2295C62.6848 10.4367 61.7487 9.80744 60.7175 9.37803C59.6863 8.94862 58.5802 8.72754 57.4632 8.72754C56.3461 8.72754 55.2401 8.94862 54.2089 9.37803C53.1776 9.80744 52.2416 10.4367 51.4546 11.2295C50.6677 12.0224 50.0455 12.9631 49.6238 13.9975C49.2021 15.032 48.9893 16.1396 48.9977 17.2566V20.0876C48.9639 22.0148 49.625 23.8898 50.8601 25.3696C49.6367 26.889 48.9784 28.7859 48.9977 30.7366ZM55.3465 20.0876V17.2566C55.3429 16.9771 55.3951 16.6996 55.5 16.4405C55.6049 16.1813 55.7605 15.9457 55.9575 15.7474C56.1546 15.5491 56.3893 15.3921 56.6477 15.2855C56.9062 15.179 57.1834 15.1251 57.4629 15.1269C58.0232 15.1376 58.5573 15.3658 58.9523 15.7633C59.3473 16.1608 59.5722 16.6963 59.5794 17.2566V20.0876C59.5723 20.648 59.3475 21.1836 58.9525 21.5812C58.5575 21.9788 58.0233 22.2071 57.4629 22.2177C57.1833 22.2196 56.9061 22.1657 56.6476 22.0591C56.3891 21.9525 56.1544 21.7955 55.9574 21.5971C55.7603 21.3987 55.6048 21.1631 55.4999 20.9039C55.395 20.6447 55.3428 20.3671 55.3465 20.0876ZM55.3465 34.3841V30.7366C55.343 30.4571 55.3952 30.1797 55.5002 29.9206C55.6051 29.6615 55.7607 29.4259 55.9577 29.2277C56.1548 29.0294 56.3894 28.8724 56.6479 28.7659C56.9063 28.6594 57.1834 28.6055 57.4629 28.6074C58.0232 28.6179 58.5573 28.846 58.9523 29.2434C59.3473 29.6408 59.5722 30.1763 59.5794 30.7366V34.3841C59.5722 34.9444 59.3473 35.48 58.9523 35.8774C58.5573 36.2749 58.0232 36.5031 57.4629 36.5138C57.1834 36.5157 56.9062 36.4618 56.6477 36.3552C56.3893 36.2487 56.1546 36.0917 55.9575 35.8933C55.7605 35.695 55.6049 35.4594 55.5 35.2003C55.3951 34.9411 55.3429 34.6637 55.3465 34.3841ZM28.7606 34.3841C28.7649 34.6647 28.7132 34.9433 28.6088 35.2037C28.5043 35.4641 28.3491 35.7012 28.1522 35.9011C27.9553 36.101 27.7205 36.2597 27.4617 36.3681C27.2029 36.4764 26.9251 36.5322 26.6445 36.5322C26.3639 36.5322 26.0861 36.4764 25.8272 36.3681C25.5684 36.2597 25.3337 36.101 25.1368 35.9011C24.9398 35.7012 24.7846 35.4641 24.6802 35.2037C24.5757 34.9433 24.5241 34.6647 24.5283 34.3841V22.3417H18.1819V34.3841C18.1739 35.5013 18.3869 36.6091 18.8087 37.6437C19.2304 38.6783 19.8525 39.6193 20.6392 40.4126C21.4259 41.2059 22.3617 41.8358 23.3928 42.2662C24.4239 42.6965 25.5298 42.9187 26.6471 42.9201C28.5909 42.9333 30.478 42.265 31.9804 41.0315C33.4504 42.2637 35.3106 42.9331 37.2287 42.9201C38.348 42.9259 39.4572 42.7086 40.4915 42.2808C41.5259 41.853 42.4645 41.2233 43.2527 40.4286C44.0408 39.6338 44.6627 38.69 45.0819 37.6521C45.501 36.6143 45.7091 35.5033 45.6939 34.3841V22.3417H39.3451V34.3841C39.3451 34.9454 39.1222 35.4837 38.7253 35.8806C38.3284 36.2775 37.79 36.5005 37.2287 36.5005C36.6674 36.5005 36.1291 36.2775 35.7322 35.8806C35.3353 35.4837 35.1123 34.9454 35.1123 34.3841V22.3417H28.7635V34.3841H28.7606ZM71.5496 28.0334C71.5535 28.2443 71.5102 28.4534 71.4229 28.6453C71.3399 28.8227 71.2167 28.9783 71.063 29.0997C70.8977 29.2275 70.7092 29.3223 70.508 29.3788C70.2775 29.4443 70.0388 29.4762 69.7993 29.4738C69.6475 29.4737 69.496 29.4611 69.3463 29.4363C69.2158 29.4137 69.087 29.382 68.9608 29.3413C68.8609 29.3095 68.7637 29.2695 68.6703 29.2217C68.6087 29.1909 68.5508 29.1533 68.4975 29.1097C68.4584 29.0716 68.4309 29.0232 68.4182 28.9701C68.3989 28.8901 68.3905 28.8078 68.3931 28.7256C68.3925 28.6721 68.3958 28.6186 68.403 28.5656C68.4078 28.5303 68.4162 28.4956 68.4282 28.4621C68.4346 28.4398 68.4483 28.4203 68.467 28.4066C68.4857 28.393 68.5085 28.3859 68.5317 28.3866C68.5907 28.3948 68.6465 28.4184 68.6936 28.455C68.7648 28.4996 68.8512 28.5499 68.9561 28.6017C69.0745 28.6604 69.1976 28.7093 69.324 28.7479C69.483 28.7958 69.6484 28.8187 69.8144 28.8158C69.9415 28.8172 70.0682 28.8022 70.1914 28.7712C70.2959 28.7444 70.3948 28.6996 70.4838 28.6387C70.5646 28.5821 70.6299 28.5062 70.6737 28.4179C70.7215 28.3182 70.7449 28.2085 70.7421 28.098C70.746 27.9843 70.7126 27.8724 70.6471 27.7794C70.5769 27.6881 70.4905 27.6104 70.3922 27.5501C70.2787 27.4798 70.1589 27.4204 70.0343 27.3726C69.9032 27.3218 69.766 27.2676 69.6255 27.2116C69.4855 27.1544 69.3484 27.0902 69.2148 27.0193C69.0831 26.9499 68.9622 26.8616 68.8559 26.7573C68.7483 26.6513 68.6618 26.5258 68.601 26.3875C68.5333 26.2251 68.5009 26.0501 68.506 25.8742C68.5057 25.7007 68.5401 25.5288 68.6072 25.3686C68.6757 25.2066 68.7797 25.0619 68.9115 24.9452C69.0604 24.8166 69.2327 24.718 69.419 24.6546C69.7635 24.5427 70.1298 24.5152 70.4872 24.5744C70.5963 24.5909 70.7039 24.6161 70.809 24.6499C70.8937 24.6731 70.9758 24.7049 71.054 24.7448C71.108 24.7705 71.1595 24.8012 71.2078 24.8364C71.2348 24.8555 71.2583 24.8791 71.2771 24.9062C71.2893 24.9273 71.298 24.9502 71.3028 24.9741C71.308 24.9979 71.3113 25.0282 71.3161 25.0662C71.3218 25.1108 71.3245 25.1557 71.3241 25.2006C71.3245 25.2494 71.3218 25.2983 71.3161 25.3468C71.3133 25.3818 71.3054 25.4161 71.2928 25.4489C71.2843 25.4718 71.2695 25.4919 71.2501 25.5068C71.2346 25.5183 71.2157 25.5244 71.1964 25.5244C71.149 25.5182 71.1041 25.4995 71.0663 25.4702C70.9965 25.4271 70.9241 25.3884 70.8494 25.3544C70.7464 25.3086 70.6406 25.2692 70.5327 25.2367C70.3986 25.1991 70.2599 25.1807 70.1207 25.1821C69.9968 25.1797 69.8733 25.1957 69.7542 25.2295C69.6588 25.2562 69.5698 25.3019 69.4926 25.3639C69.4267 25.4209 69.3742 25.4917 69.3387 25.5714C69.3045 25.6533 69.2872 25.7413 69.2879 25.8301C69.2841 25.9468 69.3186 26.0615 69.3862 26.1567C69.4572 26.2492 69.545 26.3275 69.645 26.3875C69.7593 26.4588 69.8799 26.5197 70.0053 26.5693C70.1415 26.621 70.2792 26.6756 70.4197 26.7321C70.5603 26.7886 70.6984 26.8522 70.8361 26.922C70.9688 26.9891 71.0916 27.0745 71.2007 27.1755C71.3072 27.2781 71.3934 27.3999 71.4547 27.5344C71.5226 27.692 71.556 27.8623 71.5525 28.0339L71.5496 28.0334ZM76.5573 29.2544C76.5583 29.2781 76.5511 29.3014 76.5369 29.3204C76.5205 29.342 76.4982 29.3585 76.4728 29.3679C76.4336 29.3843 76.3921 29.3947 76.3498 29.3988C76.2841 29.4066 76.218 29.4101 76.1518 29.4092C76.0835 29.4103 76.0151 29.4068 75.9472 29.3988C75.9049 29.3948 75.8634 29.3844 75.8243 29.3679C75.7989 29.3581 75.7767 29.3417 75.7597 29.3204C75.7453 29.3015 75.738 29.2782 75.7388 29.2544V26.6277C75.7446 26.4203 75.7248 26.213 75.68 26.0105C75.6465 25.8665 75.5881 25.7295 75.5076 25.6055C75.4339 25.4946 75.3318 25.4056 75.2119 25.3478C75.0815 25.2852 74.9382 25.2541 74.7936 25.2571C74.5711 25.263 74.3564 25.3399 74.1807 25.4764C73.9368 25.6593 73.72 25.8759 73.5369 26.1197V29.253C73.5379 29.2769 73.5303 29.3002 73.5156 29.319C73.4986 29.3403 73.4763 29.3566 73.451 29.3665C73.4118 29.383 73.3704 29.3934 73.328 29.3973C73.2603 29.4053 73.1921 29.4088 73.1239 29.4078C73.0578 29.4087 72.9916 29.4052 72.9259 29.3973C72.8829 29.3932 72.8407 29.3828 72.8006 29.3665C72.7745 29.3584 72.7519 29.3417 72.7365 29.319C72.7235 29.2995 72.7171 29.2764 72.718 29.253V22.5952C72.717 22.5707 72.7235 22.5466 72.7365 22.5259C72.7509 22.5014 72.7737 22.483 72.8006 22.4741C72.841 22.4594 72.8831 22.4496 72.9259 22.4451C72.9916 22.4373 73.0578 22.4338 73.1239 22.4347C73.1921 22.4337 73.2603 22.4372 73.328 22.4451C73.3701 22.4494 73.4115 22.4591 73.451 22.4741C73.477 22.4848 73.4995 22.5028 73.5156 22.5259C73.5303 22.5459 73.5379 22.5703 73.5369 22.5952V25.2822C73.7385 25.0566 73.978 24.8681 74.2448 24.7254C74.4657 24.6081 74.7116 24.5457 74.9617 24.5435C75.2202 24.5354 75.477 24.5878 75.7118 24.6964C75.9065 24.7899 76.076 24.9288 76.206 25.1014C76.3345 25.2797 76.4257 25.4822 76.4742 25.6967C76.5345 25.9675 76.5624 26.2444 76.5573 26.5218V29.2549V29.2544ZM78.866 29.2544C78.8669 29.2783 78.8593 29.3017 78.8446 29.3204C78.8282 29.3417 78.8064 29.3581 78.7815 29.3679C78.7419 29.3842 78.7001 29.3945 78.6576 29.3988C78.5898 29.4068 78.5216 29.4103 78.4534 29.4092C78.3871 29.4102 78.3208 29.4067 78.255 29.3988C78.2122 29.3948 78.1703 29.3844 78.1306 29.3679C78.1041 29.3598 78.081 29.3431 78.0651 29.3204C78.0527 29.3007 78.0464 29.2777 78.047 29.2544V24.7676C78.0472 24.745 78.0534 24.7229 78.0651 24.7035C78.0803 24.6802 78.1036 24.6632 78.1306 24.656C78.1703 24.6398 78.2122 24.6294 78.255 24.6252C78.3209 24.6179 78.3871 24.6145 78.4534 24.6152C78.5216 24.6144 78.5898 24.6177 78.6576 24.6252C78.7001 24.6297 78.7418 24.64 78.7815 24.656C78.8069 24.665 78.8289 24.6816 78.8446 24.7035C78.8585 24.722 78.866 24.7445 78.866 24.7676V29.2549V29.2544ZM78.9586 23.2522C78.9753 23.3926 78.9363 23.5339 78.8498 23.6458C78.7284 23.7134 78.5917 23.7489 78.4527 23.7489C78.3137 23.7489 78.177 23.7134 78.0556 23.6458C77.971 23.5358 77.9329 23.3971 77.9492 23.2593C77.9326 23.1194 77.9713 22.9785 78.057 22.8667C78.173 22.7833 78.3156 22.7456 78.4577 22.7609C78.5973 22.7451 78.7378 22.7814 78.8522 22.8629C78.9363 22.9733 78.9744 23.112 78.9586 23.2498V23.2522ZM84.4775 26.941C84.4818 27.2972 84.439 27.6524 84.3503 27.9973C84.2792 28.2842 84.1535 28.5547 83.98 28.7939C83.8201 29.007 83.6125 29.1796 83.3737 29.2977C83.1143 29.4189 82.8306 29.4795 82.5443 29.4747C82.4214 29.4757 82.2988 29.4618 82.1792 29.4334C82.0643 29.407 81.9535 29.3651 81.8498 29.309C81.7359 29.2491 81.6286 29.1774 81.5298 29.0949C81.4234 29.0081 81.3123 28.905 81.1937 28.7897V31.0348C81.1938 31.0595 81.1867 31.0838 81.1732 31.1045C81.1562 31.1253 81.1343 31.1415 81.1096 31.152C81.07 31.1683 81.0283 31.1787 80.9857 31.1829C80.9177 31.1893 80.8494 31.1923 80.7811 31.1919C80.715 31.1922 80.6489 31.1892 80.5831 31.1829C80.5402 31.1789 80.4981 31.1685 80.4583 31.152C80.4322 31.1435 80.4096 31.1269 80.3937 31.1045C80.3818 31.0832 80.3756 31.0592 80.3757 31.0348V24.7681C80.3743 24.7433 80.3793 24.7186 80.3904 24.6964C80.4045 24.6748 80.4251 24.6581 80.4493 24.6489C80.4859 24.6334 80.5249 24.6241 80.5646 24.6214C80.6201 24.6153 80.6759 24.6124 80.7317 24.6128C80.7891 24.6123 80.8465 24.6151 80.9036 24.6214C80.9419 24.6242 80.9795 24.6335 81.0147 24.6489C81.0396 24.6583 81.0612 24.6748 81.0769 24.6964C81.0892 24.7182 81.095 24.7431 81.0935 24.7681V25.372C81.2161 25.2423 81.3472 25.1209 81.4856 25.0083C81.603 24.9096 81.7302 24.8233 81.8654 24.751C81.9888 24.6836 82.1201 24.6316 82.2561 24.5962C82.3949 24.5602 82.5377 24.5424 82.681 24.5435C82.9683 24.5348 83.253 24.6002 83.5076 24.7334C83.7327 24.8574 83.9237 25.0352 84.0635 25.2509C84.2132 25.4852 84.3198 25.7444 84.3783 26.0162C84.4466 26.3197 84.48 26.6299 84.478 26.941H84.4775ZM83.6144 27.036C83.6148 26.8134 83.5978 26.5912 83.5636 26.3713C83.5336 26.1723 83.4734 25.9791 83.3851 25.7983C83.3058 25.64 83.1892 25.5035 83.0452 25.4005C82.8881 25.2975 82.7031 25.2456 82.5154 25.2519C82.4094 25.2519 82.3041 25.2679 82.203 25.2993C82.0933 25.3356 81.9889 25.3862 81.8925 25.4498C81.7731 25.5283 81.6618 25.6185 81.5602 25.719C81.4292 25.8479 81.3071 25.9854 81.1946 26.1306V27.9157C81.3795 28.1532 81.5943 28.3659 81.8336 28.5485C82.0157 28.688 82.2381 28.7648 82.4674 28.7674C82.6545 28.7721 82.8387 28.7198 82.9953 28.6173C83.1441 28.5144 83.2663 28.3775 83.3519 28.2181C83.4459 28.043 83.5133 27.8548 83.5517 27.6598C83.5947 27.455 83.616 27.2462 83.6154 27.0369L83.6144 27.036ZM89.8065 26.941C89.8111 27.2972 89.7683 27.6524 89.6793 27.9973C89.6084 28.2841 89.483 28.5545 89.31 28.7939C89.1497 29.0072 88.9415 29.1797 88.7023 29.2977C88.4431 29.419 88.1595 29.4796 87.8734 29.4747C87.7508 29.4757 87.6285 29.4618 87.5092 29.4334C87.3933 29.4074 87.2815 29.3655 87.1769 29.309C87.0631 29.2492 86.956 29.1775 86.8574 29.0949C86.7511 29.0081 86.639 28.905 86.5208 28.7897V31.0348C86.5209 31.0594 86.514 31.0836 86.5009 31.1045C86.4837 31.1254 86.4617 31.1417 86.4368 31.152C86.3973 31.1685 86.3555 31.1789 86.3129 31.1829C86.2449 31.1893 86.1766 31.1923 86.1083 31.1919C86.0423 31.1922 85.9764 31.1892 85.9108 31.1829C85.8676 31.1787 85.8252 31.1683 85.785 31.152C85.7593 31.1433 85.737 31.1267 85.7213 31.1045C85.7093 31.0833 85.7029 31.0592 85.7028 31.0348V24.7681C85.7017 24.7433 85.7068 24.7187 85.7175 24.6964C85.7322 24.6748 85.753 24.6583 85.7774 24.6489C85.8138 24.6334 85.8527 24.6241 85.8922 24.6214C86.0046 24.6098 86.1179 24.6098 86.2303 24.6214C86.2687 24.6241 86.3065 24.6335 86.3418 24.6489C86.3669 24.6583 86.3887 24.6748 86.4045 24.6964C86.4174 24.718 86.4234 24.743 86.4216 24.7681V25.372C86.5443 25.2423 86.6752 25.1209 86.8137 25.0083C86.9307 24.9091 87.058 24.8229 87.1935 24.751C87.3186 24.6826 87.4518 24.6301 87.5899 24.5948C87.7285 24.5587 87.8712 24.541 88.0144 24.5421C88.3018 24.5333 88.5866 24.5987 88.8414 24.732C89.0658 24.8566 89.2557 25.0351 89.394 25.2514C89.5436 25.4857 89.6502 25.7449 89.7087 26.0167C89.777 26.3201 89.8105 26.6304 89.8084 26.9415L89.8065 26.941ZM88.9439 27.036C88.9448 26.8134 88.9278 26.5911 88.8931 26.3713C88.8631 26.1722 88.8025 25.979 88.7137 25.7983C88.6349 25.64 88.5185 25.5034 88.3747 25.4005C88.2176 25.2975 88.0326 25.2456 87.8449 25.2519C87.7388 25.2519 87.6333 25.2679 87.532 25.2993C87.4222 25.3356 87.3176 25.3862 87.2211 25.4498C87.1022 25.5291 86.9909 25.6192 86.8887 25.719C86.7583 25.8482 86.6364 25.9857 86.5237 26.1306V27.9157C86.7087 28.1531 86.9234 28.3658 87.1627 28.5485C87.3449 28.688 87.5674 28.7648 87.7969 28.7674C87.9839 28.7722 88.1679 28.7198 88.3244 28.6173C88.4733 28.5144 88.5957 28.3776 88.6814 28.2181C88.775 28.0428 88.8422 27.8547 88.8808 27.6598C88.9242 27.455 88.9456 27.2462 88.9449 27.0369L88.9439 27.036ZM91.9419 29.2549C91.9424 29.2785 91.9355 29.3016 91.922 29.3209C91.905 29.3419 91.8829 29.3582 91.8579 29.3684C91.8186 29.385 91.777 29.3955 91.7345 29.3992C91.6664 29.4073 91.5979 29.4108 91.5294 29.4097C91.4632 29.41 91.3972 29.4065 91.3314 29.3992C91.2885 29.3952 91.2464 29.3848 91.2066 29.3684C91.1808 29.3593 91.1584 29.3428 91.142 29.3209C91.1301 29.301 91.1239 29.2782 91.124 29.2549V24.7676C91.1244 24.7451 91.1306 24.723 91.142 24.7035C91.1576 24.6809 91.1803 24.6642 91.2066 24.656C91.2467 24.6404 91.2886 24.63 91.3314 24.6252C91.3971 24.6178 91.4633 24.6145 91.5294 24.6152C91.5979 24.6144 91.6664 24.6177 91.7345 24.6252C91.7768 24.6299 91.8184 24.6402 91.8579 24.656C91.8832 24.6657 91.9054 24.6821 91.922 24.7035C91.935 24.7224 91.942 24.7447 91.9419 24.7676V29.2549ZM92.0369 23.2527C92.0531 23.393 92.0141 23.5342 91.9282 23.6463C91.8121 23.7289 91.6696 23.7659 91.528 23.7502C91.3884 23.766 91.2479 23.7297 91.1335 23.6482C91.049 23.5381 91.0107 23.3995 91.0266 23.2617C91.0103 23.1217 91.0493 22.9808 91.1354 22.8691C91.2563 22.8004 91.3929 22.764 91.532 22.7633C91.6711 22.7626 91.808 22.7978 91.9296 22.8653C92.0143 22.9754 92.0528 23.1142 92.0369 23.2522V23.2527ZM97.2933 29.2549C97.2935 29.2787 97.286 29.3018 97.2719 29.3209C97.2557 29.3423 97.2338 29.3587 97.2088 29.3684C97.1693 29.3848 97.1275 29.3952 97.0849 29.3992C97.0192 29.4065 96.953 29.41 96.8869 29.4097C96.8186 29.4101 96.7503 29.4066 96.6823 29.3992C96.6399 29.3955 96.5984 29.3851 96.5593 29.3684C96.5339 29.3584 96.5115 29.3421 96.4943 29.3209C96.4807 29.3016 96.4737 29.2785 96.4744 29.2549V26.6277C96.4794 26.4203 96.4597 26.2131 96.4155 26.0105C96.3815 25.8666 96.323 25.7296 96.2427 25.6055C96.169 25.4945 96.0666 25.4054 95.9464 25.3478C95.8162 25.2852 95.6731 25.2541 95.5287 25.2571C95.3061 25.2634 95.0914 25.3402 94.9153 25.4764C94.6716 25.6595 94.4551 25.876 94.272 26.1197V29.253C94.2724 29.2767 94.2651 29.2999 94.2511 29.319C94.2344 29.3403 94.2122 29.3567 94.187 29.3665C94.1478 29.3833 94.1061 29.3937 94.0636 29.3973C93.9957 29.4054 93.9273 29.4089 93.859 29.4078C93.7928 29.4081 93.7268 29.4046 93.661 29.3973C93.6181 29.3933 93.576 29.3829 93.5362 29.3665C93.5102 29.3575 93.4876 29.341 93.4711 29.319C93.4594 29.299 93.4532 29.2762 93.4531 29.253V24.7676C93.4522 24.744 93.4573 24.7205 93.4678 24.6993C93.4834 24.6788 93.5038 24.6625 93.5271 24.6518C93.5635 24.6352 93.6026 24.6256 93.6425 24.6233C93.7633 24.6117 93.8849 24.6117 94.0057 24.6233C94.0448 24.6248 94.0831 24.6345 94.1182 24.6518C94.1404 24.6633 94.1599 24.6795 94.1752 24.6993C94.1869 24.7201 94.1926 24.7437 94.1918 24.7676V25.362C94.4029 25.1117 94.6571 24.9012 94.9424 24.7406C95.174 24.6145 95.433 24.5468 95.6967 24.5435C95.9557 24.5361 96.2128 24.5884 96.4483 24.6964C96.6425 24.7901 96.8115 24.929 96.941 25.1014C97.0698 25.2798 97.1613 25.4822 97.2102 25.6967C97.27 25.9659 97.2979 26.2413 97.2933 26.5171V29.2549ZM102.687 24.9718C102.693 25.0586 102.676 25.1454 102.639 25.2243C102.628 25.2469 102.61 25.266 102.589 25.2797C102.567 25.2935 102.543 25.3014 102.517 25.3027H101.88C101.99 25.4138 102.073 25.5488 102.122 25.6972C102.168 25.8437 102.192 25.9964 102.191 26.1501C102.196 26.385 102.154 26.6184 102.068 26.837C101.99 27.0302 101.869 27.2031 101.715 27.3426C101.555 27.4837 101.368 27.5912 101.166 27.6588C100.94 27.7348 100.702 27.7722 100.464 27.7694C100.289 27.77 100.114 27.7455 99.9462 27.6968C99.8089 27.6614 99.6799 27.5995 99.5664 27.5145C99.5064 27.5741 99.4565 27.643 99.4187 27.7186C99.3799 27.8018 99.3611 27.8928 99.3637 27.9845C99.364 28.0422 99.3788 28.099 99.4069 28.1494C99.4349 28.1999 99.4753 28.2424 99.5241 28.2731C99.6514 28.3555 99.7999 28.3989 99.9514 28.398L101.117 28.4455C101.322 28.4509 101.527 28.4817 101.725 28.5371C101.898 28.5868 102.061 28.6672 102.206 28.7745C102.339 28.873 102.448 29.001 102.523 29.1486C102.602 29.3088 102.641 29.4857 102.637 29.6642C102.637 29.8675 102.594 30.0685 102.508 30.2528C102.417 30.4452 102.282 30.6133 102.114 30.7433C101.912 30.898 101.682 31.012 101.437 31.0789C101.121 31.1649 100.794 31.2053 100.467 31.199C100.158 31.2044 99.8493 31.1737 99.5474 31.1074C99.3279 31.0595 99.1182 30.9744 98.9274 30.8558C98.7778 30.7635 98.6562 30.6322 98.5756 30.476C98.502 30.3263 98.4642 30.1614 98.4655 29.9946C98.4668 29.8865 98.4815 29.7791 98.5091 29.6746C98.5354 29.5713 98.576 29.4723 98.6297 29.3803C98.6873 29.2835 98.756 29.1938 98.8343 29.113C98.9209 29.0225 99.0138 28.9384 99.1125 28.8614C98.9668 28.7915 98.8428 28.6832 98.7541 28.548C98.6777 28.4247 98.6375 28.2824 98.6383 28.1374C98.6345 27.9494 98.6769 27.7634 98.7617 27.5957C98.8425 27.4381 98.9461 27.2933 99.0693 27.166C98.9653 27.0424 98.8827 26.9024 98.8248 26.7516C98.7619 26.5712 98.7318 26.381 98.7361 26.19C98.7329 25.9545 98.777 25.7207 98.8657 25.5025C98.9462 25.3077 99.0678 25.1325 99.2222 24.9888C99.3808 24.8457 99.5669 24.7363 99.7691 24.6674C99.9934 24.5908 100.229 24.5528 100.466 24.5549C100.593 24.5541 100.72 24.5612 100.846 24.5763C100.954 24.6043 101.065 24.6256 101.176 24.6399H102.523C102.55 24.6396 102.576 24.6472 102.598 24.6617C102.62 24.6763 102.638 24.6971 102.648 24.7216C102.68 24.8013 102.695 24.8872 102.69 24.9732L102.687 24.9718ZM101.41 26.1529C101.418 26.0231 101.4 25.8932 101.357 25.7705C101.314 25.6478 101.247 25.5348 101.16 25.438C101.066 25.3483 100.953 25.2792 100.831 25.235C100.708 25.1907 100.578 25.1722 100.448 25.1806C100.306 25.1779 100.165 25.2052 100.035 25.2609C99.922 25.3107 99.822 25.3857 99.7425 25.4802C99.6642 25.5751 99.6051 25.6845 99.5688 25.8021C99.5304 25.925 99.511 26.0531 99.5113 26.1819C99.5045 26.3089 99.5231 26.4359 99.5661 26.5556C99.609 26.6753 99.6755 26.7852 99.7615 26.8788C99.8549 26.9671 99.9654 27.0353 100.086 27.0792C100.207 27.1232 100.335 27.1419 100.464 27.1342C100.608 27.1376 100.751 27.1111 100.884 27.0564C100.997 27.008 101.098 26.9348 101.178 26.8423C101.257 26.7498 101.317 26.642 101.352 26.5256C101.391 26.4044 101.41 26.2781 101.41 26.151L101.41 26.1529ZM101.821 29.7074C101.824 29.6191 101.804 29.5315 101.763 29.4532C101.722 29.375 101.661 29.309 101.586 29.2616C101.393 29.1486 101.173 29.0909 100.949 29.0949L99.7943 29.0555C99.7013 29.127 99.6148 29.2065 99.5355 29.2929C99.4743 29.3586 99.4199 29.4303 99.3732 29.507C99.3361 29.5696 99.3087 29.6375 99.292 29.7083C99.2773 29.7754 99.27 29.8438 99.2702 29.9125C99.2693 30.0176 99.2999 30.1206 99.358 30.2083C99.4161 30.2959 99.4991 30.3642 99.5963 30.4043C99.8834 30.5289 100.195 30.5859 100.508 30.5709C100.718 30.5758 100.927 30.5516 101.13 30.4992C101.276 30.4622 101.413 30.3978 101.534 30.3093C101.629 30.2382 101.705 30.1439 101.754 30.0354C101.799 29.9321 101.822 29.8205 101.822 29.7078L101.821 29.7074Z" fill="white"/>
<path d="M250.668 18.2833C250.554 18.9167 250.309 19.4698 249.93 19.9425C249.562 20.4153 249.089 20.7793 248.512 21.0345L249.874 24.6367H247.321L246.158 21.4316H245.08L244.513 24.6367H241.974L243.733 14.7094H247.619C248.602 14.7094 249.401 15.0593 250.015 15.7589C250.63 16.4585 250.847 17.3 250.668 18.2833ZM245.846 17.0494L245.449 19.276H246.91C247.222 19.2854 247.486 19.1862 247.704 18.9782C247.931 18.7702 248.073 18.5007 248.129 18.1698C248.186 17.8389 248.129 17.5694 247.959 17.3614C247.798 17.1534 247.548 17.0494 247.207 17.0494H245.846ZM254.989 17.3473C256.058 17.3473 256.894 17.7113 257.5 18.4393C258.105 19.1578 258.313 20.0371 258.124 21.0771C258.086 21.3607 258.005 21.6538 257.882 21.9564H253.018C253.15 22.5331 253.604 22.8214 254.38 22.8214C254.947 22.8214 255.415 22.6513 255.784 22.3109L257.287 23.6865C256.464 24.4524 255.434 24.8353 254.195 24.8353C252.966 24.8353 252.04 24.4618 251.416 23.7149C250.801 22.968 250.584 22.0462 250.763 20.9494C250.933 19.9094 251.416 19.0491 252.21 18.3684C253.004 17.6876 253.93 17.3473 254.989 17.3473ZM253.302 20.3113H255.982C255.935 19.6589 255.561 19.3327 254.862 19.3327C254.162 19.3327 253.642 19.6589 253.302 20.3113ZM264.951 17.5458H267.277L266.071 24.3531C265.873 25.4971 265.391 26.3385 264.625 26.8774C263.869 27.4164 262.956 27.6858 261.888 27.6858C261.094 27.6858 260.403 27.5393 259.817 27.2462C259.231 26.9531 258.815 26.5229 258.569 25.9556L260.654 24.8636C260.919 25.3742 261.401 25.6294 262.101 25.6294C262.535 25.6294 262.899 25.5207 263.193 25.3033C263.486 25.0953 263.67 24.7785 263.746 24.3531L263.845 23.8142C263.287 24.3058 262.616 24.5516 261.831 24.5516C261.122 24.5516 260.531 24.372 260.058 24.0127C259.586 23.644 259.264 23.1854 259.094 22.6371C258.933 22.0887 258.9 21.4931 258.995 20.8502C259.137 19.9047 259.548 19.0869 260.229 18.3967C260.919 17.6971 261.779 17.3473 262.81 17.3473C263.727 17.3473 264.393 17.6924 264.809 18.3825L264.951 17.5458ZM262.583 22.4102C262.999 22.4102 263.367 22.2873 263.689 22.0414C264.01 21.7956 264.223 21.4789 264.327 21.0913L264.37 20.8076C264.407 20.42 264.308 20.1033 264.072 19.8574C263.845 19.6116 263.523 19.4887 263.107 19.4887C262.663 19.4887 262.275 19.6258 261.945 19.9C261.623 20.1742 261.425 20.524 261.349 20.9494C261.273 21.3749 261.349 21.7247 261.576 21.9989C261.803 22.2731 262.138 22.4102 262.583 22.4102ZM270.087 16.9644C269.718 16.9644 269.42 16.832 269.193 16.5673C268.967 16.2931 268.886 15.9716 268.952 15.6029C269.009 15.2436 269.189 14.9316 269.491 14.6669C269.794 14.3927 270.139 14.2556 270.527 14.2556C270.905 14.2556 271.203 14.388 271.42 14.6527C271.647 14.9174 271.727 15.2342 271.661 15.6029C271.604 15.9811 271.425 16.3025 271.122 16.5673C270.82 16.832 270.475 16.9644 270.087 16.9644ZM267.534 24.6367L268.782 17.5458H271.136L269.888 24.6367H267.534ZM274.268 24.8353C272.698 24.8353 271.658 24.2538 271.148 23.0909L273.218 22.084C273.426 22.6229 273.818 22.8924 274.395 22.8924C274.811 22.8924 275.038 22.7789 275.076 22.552C275.104 22.4102 275 22.292 274.764 22.1974C274.537 22.0934 274.253 21.9942 273.913 21.8996C273.582 21.8051 273.256 21.6822 272.934 21.5309C272.613 21.3702 272.358 21.1196 272.169 20.7793C271.989 20.4294 271.942 19.9993 272.027 19.4887C272.15 18.7796 272.509 18.2454 273.105 17.8862C273.7 17.5269 274.357 17.3473 275.076 17.3473C275.728 17.3473 276.3 17.4844 276.792 17.7585C277.293 18.0233 277.657 18.4109 277.884 18.9214L275.884 19.8858C275.714 19.4604 275.421 19.2429 275.005 19.2334C274.646 19.2145 274.438 19.3422 274.381 19.6164C274.353 19.7676 274.419 19.8953 274.58 19.9993C274.74 20.0938 274.948 20.1647 275.204 20.212C275.459 20.2593 275.733 20.3396 276.026 20.4531C276.319 20.5571 276.584 20.6847 276.82 20.836C277.066 20.9873 277.246 21.2284 277.359 21.5593C277.482 21.8807 277.506 22.2684 277.43 22.7222C277.298 23.4502 276.938 23.9844 276.352 24.3247C275.766 24.6651 275.071 24.8353 274.268 24.8353ZM281.603 19.8007L281.249 21.8571C281.192 22.1785 281.268 22.3771 281.476 22.4527C281.684 22.5284 282.062 22.5473 282.61 22.5094L282.242 24.6367C280.908 24.8164 279.968 24.684 279.419 24.2396C278.871 23.7858 278.691 23.0105 278.88 21.9138L279.249 19.8007H278.186L278.583 17.5458H279.646L279.873 16.2694L282.355 15.5604L282 17.5458H283.49L283.078 19.8007H281.603ZM287.871 17.3473C288.939 17.3473 289.776 17.7113 290.381 18.4393C290.986 19.1578 291.194 20.0371 291.005 21.0771C290.967 21.3607 290.887 21.6538 290.764 21.9564H285.899C286.032 22.5331 286.486 22.8214 287.261 22.8214C287.828 22.8214 288.296 22.6513 288.665 22.3109L290.168 23.6865C289.346 24.4524 288.315 24.8353 287.077 24.8353C285.847 24.8353 284.921 24.4618 284.297 23.7149C283.682 22.968 283.465 22.0462 283.645 20.9494C283.815 19.9094 284.297 19.0491 285.091 18.3684C285.885 17.6876 286.812 17.3473 287.871 17.3473ZM286.183 20.3113H288.863C288.816 19.6589 288.443 19.3327 287.743 19.3327C287.043 19.3327 286.523 19.6589 286.183 20.3113ZM294.854 18.8789C295.072 18.3967 295.393 18.0327 295.819 17.7869C296.244 17.5316 296.722 17.404 297.251 17.404L296.811 20.0134C296.272 19.9378 295.757 20.0324 295.266 20.2971C294.783 20.5618 294.486 21.0298 294.372 21.7011L294.4 21.4742L293.847 24.6367H291.493L292.741 17.5458H295.095L294.854 18.8789ZM301.422 17.3473C302.49 17.3473 303.327 17.7113 303.932 18.4393C304.537 19.1578 304.745 20.0371 304.556 21.0771C304.518 21.3607 304.438 21.6538 304.315 21.9564H299.451C299.583 22.5331 300.037 22.8214 300.812 22.8214C301.38 22.8214 301.848 22.6513 302.216 22.3109L303.72 23.6865C302.897 24.4524 301.866 24.8353 300.628 24.8353C299.399 24.8353 298.472 24.4618 297.848 23.7149C297.234 22.968 297.016 22.0462 297.196 20.9494C297.366 19.9094 297.848 19.0491 298.642 18.3684C299.437 17.6876 300.363 17.3473 301.422 17.3473ZM299.734 20.3113H302.415C302.368 19.6589 301.994 19.3327 301.294 19.3327C300.595 19.3327 300.075 19.6589 299.734 20.3113ZM311.809 14.7094H314.163L312.419 24.6367H310.065L310.164 24.0694C309.606 24.58 308.911 24.8353 308.079 24.8353C307.068 24.8353 306.316 24.4524 305.825 23.6865C305.342 22.9207 305.186 22.0225 305.357 20.992C305.517 19.9898 305.943 19.1342 306.633 18.4251C307.323 17.7065 308.179 17.3473 309.2 17.3473C310.107 17.3473 310.765 17.6782 311.171 18.34L311.809 14.7094ZM308.93 22.6371C309.365 22.6371 309.739 22.5047 310.051 22.24C310.372 21.9753 310.58 21.6207 310.675 21.1764L310.703 21.0345C310.769 20.5807 310.689 20.2214 310.462 19.9567C310.245 19.6825 309.914 19.5454 309.469 19.5454C309.025 19.5454 308.637 19.6873 308.306 19.9709C307.985 20.2545 307.786 20.628 307.711 21.0913C307.635 21.5545 307.706 21.928 307.923 22.2116C308.15 22.4953 308.486 22.6371 308.93 22.6371ZM250.398 32.6309C250.247 33.4818 249.822 34.1294 249.122 34.5738C249.822 35.1033 250.105 35.8549 249.973 36.8287C249.859 37.6702 249.462 38.3509 248.782 38.8709C248.11 39.3814 247.212 39.6367 246.087 39.6367H241.974L243.719 29.7094H247.491C248.474 29.7094 249.24 29.9836 249.789 30.532C250.337 31.0804 250.54 31.78 250.398 32.6309ZM247.122 31.9785H245.86L245.591 33.5385H246.839C247.094 33.5385 247.311 33.4724 247.491 33.34C247.68 33.1982 247.794 33.0044 247.831 32.7585C247.869 32.5222 247.822 32.3331 247.69 32.1913C247.567 32.0494 247.378 31.9785 247.122 31.9785ZM247.491 36.5309C247.538 36.2756 247.496 36.0724 247.363 35.9211C247.241 35.7698 247.037 35.6942 246.754 35.6942H245.208L244.91 37.3676H246.442C246.716 37.3676 246.947 37.292 247.137 37.1407C247.326 36.98 247.444 36.7767 247.491 36.5309ZM253.909 33.8789C254.127 33.3967 254.448 33.0327 254.874 32.7869C255.299 32.5316 255.777 32.404 256.306 32.404L255.866 35.0134C255.327 34.9378 254.812 35.0324 254.321 35.2971C253.838 35.5618 253.541 36.0298 253.427 36.7011L253.455 36.4742L252.902 39.6367H250.548L251.796 32.5458H254.15L253.909 33.8789ZM259.541 39.8353C258.737 39.8353 258.057 39.6367 257.499 39.2396C256.951 38.8331 256.577 38.332 256.379 37.7364C256.18 37.1407 256.142 36.5167 256.265 35.8644C256.454 34.8811 256.927 34.0491 257.683 33.3684C258.449 32.6876 259.404 32.3473 260.548 32.3473C261.683 32.3473 262.548 32.7538 263.143 33.5669C263.739 34.3705 263.947 35.2782 263.767 36.2898C263.597 37.2542 263.124 38.0862 262.349 38.7858C261.574 39.4854 260.638 39.8353 259.541 39.8353ZM259.725 37.5662C260.141 37.5662 260.505 37.4291 260.817 37.1549C261.129 36.8807 261.323 36.5262 261.399 36.0913C261.475 35.6564 261.404 35.3018 261.186 35.0276C260.978 34.7534 260.666 34.6164 260.25 34.6164C259.844 34.6164 259.484 34.7534 259.172 35.0276C258.86 35.3018 258.667 35.6564 258.591 36.0913C258.515 36.5262 258.581 36.8807 258.789 37.1549C259.007 37.4291 259.319 37.5662 259.725 37.5662ZM272.418 32.5458L269.44 36.1054L271.284 39.6367H268.759L267.256 36.5167L266.703 39.6367H264.349L266.093 29.7094H268.447L267.455 35.3538L269.71 32.5458H272.418ZM276.147 32.3473C277.216 32.3473 278.053 32.7113 278.658 33.4393C279.263 34.1578 279.471 35.0371 279.282 36.0771C279.244 36.3607 279.163 36.6538 279.041 36.9564H274.176C274.309 37.5331 274.762 37.8214 275.538 37.8214C276.105 37.8214 276.573 37.6513 276.942 37.3109L278.445 38.6865C277.622 39.4524 276.592 39.8353 275.353 39.8353C274.124 39.8353 273.198 39.4618 272.574 38.7149C271.959 37.968 271.742 37.0462 271.921 35.9494C272.091 34.9094 272.574 34.0491 273.368 33.3684C274.162 32.6876 275.089 32.3473 276.147 32.3473ZM274.46 35.3113H277.14C277.093 34.6589 276.719 34.3327 276.02 34.3327C275.32 34.3327 274.8 34.6589 274.46 35.3113ZM283.131 33.8789C283.348 33.3967 283.67 33.0327 284.095 32.7869C284.521 32.5316 284.998 32.404 285.528 32.404L285.088 35.0134C284.549 34.9378 284.034 35.0324 283.542 35.2971C283.06 35.5618 282.762 36.0298 282.649 36.7011L282.677 36.4742L282.124 39.6367H279.77L281.018 32.5458H283.372L283.131 33.8789Z" fill="white"/>
<path d="M230.193 14.8951L225.079 40.376" stroke="white" stroke-width="0.727273" stroke-linecap="round"/>
</svg>
