<svg width="17" height="17" viewBox="0 0 17 17" fill="none" xmlns="http://www.w3.org/2000/svg">
<path d="M13.9373 10.9346C13.1041 10.084 12.1123 9.45434 11.0303 9.07318C12.1892 8.25835 12.9506 6.89467 12.9506 5.35268C12.9506 2.86323 10.9666 0.837891 8.52793 0.837891C6.08928 0.837891 4.10527 2.86323 4.10527 5.35268C4.10527 6.89467 4.86666 8.25835 6.0256 9.07318C4.94355 9.45434 3.9518 10.084 3.11857 10.9346C1.67368 12.4096 0.87793 14.3707 0.87793 16.4566H2.07324C2.07324 12.8234 4.9688 9.86748 8.52793 9.86748C12.0871 9.86748 14.9826 12.8234 14.9826 16.4566H16.1779C16.1779 14.3707 15.3822 12.4096 13.9373 10.9346ZM8.52793 8.64726C6.74838 8.64726 5.30059 7.16934 5.30059 5.35268C5.30059 3.53603 6.74838 2.05811 8.52793 2.05811C10.3075 2.05811 11.7553 3.53603 11.7553 5.35268C11.7553 7.16934 10.3075 8.64726 8.52793 8.64726Z" fill="black"/>
</svg>
