<svg width="19" height="18" viewBox="0 0 19 18" fill="none" xmlns="http://www.w3.org/2000/svg">
<mask id="mask0" style="mask-type:alpha" maskUnits="userSpaceOnUse" x="11" y="1" width="7" height="7">
<path fill-rule="evenodd" clip-rule="evenodd" d="M11.2656 1.5H17.6699V7.89961H11.2656V1.5Z" fill="white"/>
</mask>
<g mask="url(#mask0)">
<path fill-rule="evenodd" clip-rule="evenodd" d="M17.1071 7.89961C16.8244 7.89961 16.5814 7.68736 16.5491 7.40011C16.2649 4.86811 14.2984 2.90311 11.7656 2.62186C11.4574 2.58736 11.2346 2.30986 11.2691 2.00086C11.3029 1.69261 11.5781 1.46536 11.8901 1.50436C14.9486 1.84411 17.3239 4.21636 17.6666 7.27411C17.7011 7.58311 17.4791 7.86136 17.1709 7.89586C17.1499 7.89811 17.1281 7.89961 17.1071 7.89961Z" fill="#130F26"/>
</g>
<path fill-rule="evenodd" clip-rule="evenodd" d="M14.4513 7.90836C14.1873 7.90836 13.9526 7.72236 13.9001 7.45386C13.6841 6.34386 12.8283 5.48811 11.7198 5.27286C11.4146 5.21361 11.2158 4.91886 11.2751 4.61361C11.3343 4.30836 11.6343 4.10886 11.9343 4.16886C13.4951 4.47186 14.7003 5.67636 15.0041 7.23786C15.0633 7.54386 14.8646 7.83861 14.5601 7.89786C14.5233 7.90461 14.4873 7.90836 14.4513 7.90836Z" fill="#130F26"/>
<mask id="mask1" style="mask-type:alpha" maskUnits="userSpaceOnUse" x="2" y="1" width="16" height="16">
<path fill-rule="evenodd" clip-rule="evenodd" d="M2 1.5H17.3752V16.8754H2V1.5Z" fill="white"/>
</mask>
<g mask="url(#mask1)">
<path fill-rule="evenodd" clip-rule="evenodd" d="M3.76932 3.79617C3.77082 3.79617 3.73332 3.83517 3.68607 3.88167C3.50457 4.05792 3.12882 4.42467 3.12507 5.19192C3.11907 6.26517 3.82482 8.25792 7.22307 11.6554C10.6048 15.0364 12.5946 15.7504 13.6708 15.7504H13.6866C14.4538 15.7459 14.8198 15.3702 14.9961 15.1894C15.0493 15.1347 15.0928 15.0934 15.1236 15.0687C15.8713 14.3164 16.2538 13.7577 16.2501 13.3984C16.2456 13.0324 15.7903 12.6004 15.1611 12.0012C14.9608 11.8114 14.7433 11.6037 14.5138 11.3742C13.9183 10.7809 13.6251 10.8822 12.9763 11.1102C12.0801 11.4244 10.8523 11.8549 8.93907 9.94017C7.02507 8.02692 7.45407 6.79917 7.76682 5.90217C7.99332 5.25417 8.09682 4.95942 7.50207 4.36392C7.26957 4.13142 7.06032 3.91092 6.86757 3.70842C6.27207 3.08292 5.84232 2.63067 5.47857 2.62542H5.47257C5.11332 2.62542 4.55532 3.00942 3.76557 3.79917C3.76782 3.79692 3.76857 3.79617 3.76932 3.79617ZM13.6708 16.8754C11.8018 16.8754 9.36506 15.3874 6.42806 12.4512C3.47906 9.50291 1.98881 7.05866 2.00006 5.18591C2.00681 3.94841 2.65556 3.31466 2.89931 3.07691C2.91206 3.06116 2.95556 3.01841 2.97056 3.00341C4.04681 1.92716 4.78631 1.48466 5.49281 1.50041C6.33056 1.51166 6.92756 2.13941 7.68281 2.93366C7.86956 3.12941 8.07131 3.34316 8.29706 3.56816C9.39131 4.66316 9.08006 5.55641 8.82881 6.27341C8.55581 7.05566 8.31956 7.73066 9.73406 9.14516C11.1486 10.5597 11.8228 10.3234 12.6043 10.0482C13.3221 9.79766 14.2131 9.48416 15.3096 10.5792C15.5323 10.8019 15.7423 11.0014 15.9373 11.1867C16.7346 11.9457 17.3646 12.5449 17.3751 13.3849C17.3833 14.1004 16.9483 14.8309 15.8743 15.9049L15.3988 15.5824L15.8016 15.9747C15.5638 16.2184 14.9316 16.8679 13.6933 16.8754H13.6708Z" fill="#130F26"/>
</g>
</svg>
