<svg width="22" height="22" viewBox="0 0 22 22" fill="none" xmlns="http://www.w3.org/2000/svg">
<path fill-rule="evenodd" clip-rule="evenodd" d="M6.12109 17.0626C5.70709 17.0626 5.37109 16.7266 5.37109 16.3126V9.45264C5.37109 9.03864 5.70709 8.70264 6.12109 8.70264C6.53509 8.70264 6.87109 9.03864 6.87109 9.45264V16.3126C6.87109 16.7266 6.53509 17.0626 6.12109 17.0626Z" fill="#130F26"/>
<path fill-rule="evenodd" clip-rule="evenodd" d="M10.7881 17.0615C10.3741 17.0615 10.0381 16.7255 10.0381 16.3115V6.16846C10.0381 5.75446 10.3741 5.41846 10.7881 5.41846C11.2021 5.41846 11.5381 5.75446 11.5381 6.16846V16.3115C11.5381 16.7255 11.2021 17.0615 10.7881 17.0615Z" fill="#130F26"/>
<path fill-rule="evenodd" clip-rule="evenodd" d="M15.3779 17.0616C14.9639 17.0616 14.6279 16.7256 14.6279 16.3116V13.0776C14.6279 12.6636 14.9639 12.3276 15.3779 12.3276C15.7919 12.3276 16.1279 12.6636 16.1279 13.0776V16.3116C16.1279 16.7256 15.7919 17.0616 15.3779 17.0616Z" fill="#130F26"/>
<path fill-rule="evenodd" clip-rule="evenodd" d="M6.064 2C3.292 2 1.5 3.897 1.5 6.835V15.665C1.5 18.603 3.292 20.5 6.064 20.5H15.436C18.209 20.5 20 18.603 20 15.665V6.835C20 3.897 18.209 2 15.436 2H6.064ZM15.436 22H6.064C2.437 22 0 19.454 0 15.665V6.835C0 3.046 2.437 0.5 6.064 0.5H15.436C19.063 0.5 21.5 3.046 21.5 6.835V15.665C21.5 19.454 19.063 22 15.436 22Z" fill="#130F26"/>
</svg>
