<svg width="22" height="22" viewBox="0 0 22 22" fill="none" xmlns="http://www.w3.org/2000/svg">
<mask id="mask0" style="mask-type:alpha" maskUnits="userSpaceOnUse" x="0" y="0" width="22" height="22">
<path fill-rule="evenodd" clip-rule="evenodd" d="M0 0.500488H21.493V21.9943H0V0.500488Z" fill="white"/>
</mask>
<g mask="url(#mask0)">
<path fill-rule="evenodd" clip-rule="evenodd" d="M5.10844 19.1755C5.68844 19.1755 6.23544 19.3955 6.81444 19.6285C10.3614 21.2685 14.5564 20.5225 17.2894 17.7905C20.8954 14.1825 20.8954 8.31349 17.2894 4.70749C15.5434 2.96149 13.2214 2.00049 10.7494 2.00049C8.27644 2.00049 5.95344 2.96249 4.20844 4.70849C1.47444 7.44049 0.730437 11.6355 2.35544 15.1485C2.58944 15.7275 2.81544 16.2915 2.81544 16.8775C2.81544 17.4625 2.61444 18.0515 2.43744 18.5715C2.29144 18.9995 2.07044 19.6455 2.21244 19.7875C2.35144 19.9315 3.00144 19.7045 3.43044 19.5575C3.94544 19.3815 4.52944 19.1795 5.10844 19.1755ZM10.7244 21.9945C9.19644 21.9945 7.65844 21.6715 6.21944 21.0055C5.79544 20.8355 5.39844 20.6755 5.11344 20.6755C4.78544 20.6775 4.34444 20.8295 3.91844 20.9765C3.04444 21.2765 1.95644 21.6505 1.15144 20.8485C0.349437 20.0455 0.719437 18.9605 1.01744 18.0875C1.16444 17.6575 1.31544 17.2135 1.31544 16.8775C1.31544 16.6015 1.18244 16.2495 0.978437 15.7425C-0.894563 11.6975 -0.0285628 6.82249 3.14844 3.64749C5.17644 1.61849 7.87544 0.500488 10.7484 0.500488C13.6214 0.500488 16.3214 1.61749 18.3494 3.64649C22.5414 7.83849 22.5414 14.6585 18.3494 18.8505C16.2944 20.9065 13.5274 21.9945 10.7244 21.9945Z" fill="#130F26"/>
</g>
<path fill-rule="evenodd" clip-rule="evenodd" d="M14.6964 12.6631C14.1444 12.6631 13.6924 12.2161 13.6924 11.6631C13.6924 11.1101 14.1354 10.6631 14.6874 10.6631H14.6964C15.2484 10.6631 15.6964 11.1101 15.6964 11.6631C15.6964 12.2161 15.2484 12.6631 14.6964 12.6631Z" fill="#130F26"/>
<path fill-rule="evenodd" clip-rule="evenodd" d="M10.6876 12.6631C10.1356 12.6631 9.68359 12.2161 9.68359 11.6631C9.68359 11.1101 10.1256 10.6631 10.6786 10.6631H10.6876C11.2396 10.6631 11.6876 11.1101 11.6876 11.6631C11.6876 12.2161 11.2396 12.6631 10.6876 12.6631Z" fill="#130F26"/>
<path fill-rule="evenodd" clip-rule="evenodd" d="M6.67783 12.6631C6.12583 12.6631 5.67383 12.2161 5.67383 11.6631C5.67383 11.1101 6.11683 10.6631 6.66883 10.6631H6.67783C7.22983 10.6631 7.67783 11.1101 7.67783 11.6631C7.67783 12.2161 7.22983 12.6631 6.67783 12.6631Z" fill="#130F26"/>
</svg>
