<svg width="21" height="21" viewBox="0 0 21 21" fill="none" xmlns="http://www.w3.org/2000/svg">
<path d="M12.0156 12.9844L15.4844 9.51562L12.0156 6V8.48438H7C6.71875 8.48438 6.48438 8.59375 6.29688 8.8125C6.10938 9 6.01562 9.23438 6.01562 9.51562V13.5H7.98438V10.5H12.0156V12.9844ZM19.7031 9.79688C20.1406 10.2969 20.1406 10.7656 19.7031 11.2031L10.7031 20.2031C10.5156 20.3906 10.2812 20.4844 10 20.4844C9.71875 20.4844 9.48438 20.3906 9.29688 20.2031L0.296875 11.2031C0.109375 11.0156 0.015625 10.7812 0.015625 10.5C0.015625 10.2188 0.109375 9.98438 0.296875 9.79688L9.29688 0.796875C9.48438 0.609375 9.71875 0.515625 10 0.515625C10.2812 0.515625 10.5156 0.609375 10.7031 0.796875L19.7031 9.79688Z" fill="#3E3E3E"/>
</svg>
