<svg width="17" height="14" viewBox="0 0 17 14" fill="none" xmlns="http://www.w3.org/2000/svg">
<path d="M0.140625 3.76951L7.88899 7.79933C7.96671 7.83975 8.05302 7.86085 8.14062 7.86085C8.22823 7.86085 8.31454 7.83975 8.39226 7.79933L16.1406 3.77024V10.7702C16.1407 11.374 15.9097 11.9548 15.495 12.3937C15.0804 12.8325 14.5136 13.0961 13.9108 13.1302L13.777 13.1339H2.50426C1.90052 13.1339 1.31966 12.9029 0.880821 12.4883C0.441983 12.0737 0.178442 11.5068 0.144261 10.9041L0.140625 10.7702V3.76951ZM2.50426 0.0429688H13.777C14.3807 0.0429292 14.9616 0.273917 15.4004 0.688548C15.8393 1.10318 16.1028 1.67002 16.137 2.27279L16.1406 2.40661V2.54042L8.14062 6.70042L0.140625 2.54042V2.40661C0.140585 1.80287 0.371573 1.222 0.786204 0.783165C1.20084 0.344327 1.76768 0.080786 2.37044 0.0466052L2.50426 0.0429688H13.777H2.50426Z" fill="black"/>
</svg>
