<svg width="24" height="24" viewBox="0 0 24 24" fill="none" xmlns="http://www.w3.org/2000/svg">
<circle cx="12" cy="12" r="12" fill="#383838"/>
<path d="M11.9939 4.6875C9.47569 4.6875 7.49707 6.6675 7.49707 9.1875C7.49707 11.7075 11.0946 19.0875 11.9939 19.0875C12.8933 19.0875 16.4908 11.7075 16.4908 9.1875C16.4908 6.6675 14.5122 4.6875 11.9939 4.6875ZM11.9939 11.8875C10.465 11.8875 9.29581 10.7175 9.29581 9.1875C9.29581 7.6575 10.465 6.4875 11.9939 6.4875C13.5229 6.4875 14.692 7.6575 14.692 9.1875C14.692 10.7175 13.5229 11.8875 11.9939 11.8875Z" fill="url(#paint0_linear)"/>
<defs>
<linearGradient id="paint0_linear" x1="17.3652" y1="20.8875" x2="1.20587" y2="9.73881" gradientUnits="userSpaceOnUse">
<stop stop-color="#FAFAFA"/>
<stop offset="1" stop-color="#F1F1F1"/>
</linearGradient>
</defs>
</svg>
