<svg width="33" height="32" viewBox="0 0 33 32" fill="none" xmlns="http://www.w3.org/2000/svg">
<path d="M7.56258 7.91325C9.14991 7.91325 10.4367 6.62647 10.4367 5.03915C10.4367 3.45182 9.14991 2.16504 7.56258 2.16504C5.97526 2.16504 4.68848 3.45182 4.68848 5.03915C4.68848 6.62647 5.97526 7.91325 7.56258 7.91325Z" fill="black"/>
<path d="M13.15 9.62161V25.5671H18.1009V17.6817C18.1009 15.601 18.4923 13.586 21.0722 13.586C23.6166 13.586 23.6481 15.9649 23.6481 17.8131V25.5684H28.6016V16.824C28.6016 12.5286 27.6769 9.22754 22.6564 9.22754C20.246 9.22754 18.6303 10.5503 17.9695 11.8022H17.9025V9.62161H13.15ZM5.08203 9.62161H10.0408V25.5671H5.08203V9.62161Z" fill="black"/>
</svg>
