<svg width="24" height="24" viewBox="0 0 24 24" fill="none" xmlns="http://www.w3.org/2000/svg">
<path fill-rule="evenodd" clip-rule="evenodd" d="M7.21483 0.206675C8.47551 0.148639 8.87746 0.135742 12.0888 0.135742C15.3001 0.135742 15.7021 0.149714 16.9617 0.206675C18.2213 0.263637 19.0811 0.464614 19.8334 0.75587C20.6212 1.05357 21.3359 1.51894 21.927 2.1208C22.5289 2.71083 22.9932 3.42446 23.2898 4.21333C23.5821 4.96565 23.782 5.82544 23.8401 7.0829C23.8981 8.34572 23.911 8.74768 23.911 11.9579C23.911 15.1693 23.897 15.5712 23.8401 16.8319C23.7831 18.0894 23.5821 18.9492 23.2898 19.7015C22.9932 20.4904 22.5281 21.2053 21.927 21.7962C21.3359 22.398 20.6212 22.8623 19.8334 23.1589C19.0811 23.4513 18.2213 23.6512 16.9638 23.7092C15.7021 23.7672 15.3001 23.7801 12.0888 23.7801C8.87746 23.7801 8.47551 23.7662 7.21483 23.7092C5.95738 23.6522 5.09758 23.4513 4.34526 23.1589C3.55631 22.8623 2.8415 22.3972 2.25058 21.7962C1.64913 21.2058 1.1837 20.4913 0.88673 19.7026C0.595474 18.9502 0.395571 18.0904 0.337535 16.833C0.279498 15.5702 0.266602 15.1682 0.266602 11.9579C0.266602 8.7466 0.280573 8.34465 0.337535 7.08505C0.394496 5.82544 0.595474 4.96565 0.88673 4.21333C1.18414 3.42455 1.64993 2.71009 2.25166 2.11972C2.84173 1.5184 3.55583 1.05298 4.34419 0.75587C5.09651 0.464614 5.9563 0.264712 7.21376 0.206675H7.21483ZM16.866 2.33467C15.6193 2.27771 15.2453 2.26589 12.0888 2.26589C8.93227 2.26589 8.55826 2.27771 7.31156 2.33467C6.15836 2.38733 5.53285 2.57971 5.11585 2.742C4.56451 2.95695 4.17008 3.21166 3.7563 3.62544C3.36407 4.00703 3.06221 4.47157 2.87286 4.98499C2.71057 5.40199 2.51819 6.0275 2.46553 7.1807C2.40857 8.4274 2.39675 8.80141 2.39675 11.9579C2.39675 15.1145 2.40857 15.4885 2.46553 16.7352C2.51819 17.8884 2.71057 18.5139 2.87286 18.9309C3.06201 19.4435 3.36402 19.9089 3.7563 20.2904C4.13783 20.6827 4.6032 20.9847 5.11585 21.1739C5.53285 21.3362 6.15836 21.5285 7.31156 21.5812C8.55826 21.6382 8.9312 21.65 12.0888 21.65C15.2464 21.65 15.6193 21.6382 16.866 21.5812C18.0192 21.5285 18.6447 21.3362 19.0617 21.1739C19.6131 20.9589 20.0075 20.7042 20.4213 20.2904C20.8136 19.9089 21.1156 19.4435 21.3047 18.9309C21.467 18.5139 21.6594 17.8884 21.7121 16.7352C21.769 15.4885 21.7809 15.1145 21.7809 11.9579C21.7809 8.80141 21.769 8.4274 21.7121 7.1807C21.6594 6.0275 21.467 5.40199 21.3047 4.98499C21.0898 4.43365 20.8351 4.03922 20.4213 3.62544C20.0397 3.23323 19.5752 2.93138 19.0617 2.742C18.6447 2.57971 18.0192 2.38733 16.866 2.33467ZM10.5788 15.6024C11.4221 15.9534 12.3611 16.0008 13.2355 15.7364C14.1098 15.4721 14.8653 14.9123 15.3728 14.1528C15.8803 13.3933 16.1084 12.4812 16.0181 11.5722C15.9278 10.6632 15.5248 9.81379 14.8778 9.16898C14.4653 8.75679 13.9666 8.44117 13.4175 8.24485C12.8685 8.04853 12.2827 7.9764 11.7024 8.03363C11.1221 8.09087 10.5618 8.27605 10.0616 8.57586C9.56149 8.87566 9.13405 9.28262 8.81008 9.76745C8.4861 10.2523 8.27366 10.8029 8.18803 11.3797C8.1024 11.9565 8.14572 12.5451 8.31487 13.1031C8.48403 13.6611 8.7748 14.1747 9.16627 14.6069C9.55773 15.0391 10.0401 15.3791 10.5788 15.6024ZM7.79197 7.66111C8.35624 7.09684 9.02612 6.64924 9.76337 6.34386C10.5006 6.03848 11.2908 5.8813 12.0888 5.8813C12.8868 5.8813 13.677 6.03848 14.4142 6.34386C15.1515 6.64924 15.8214 7.09684 16.3856 7.66111C16.9499 8.22538 17.3975 8.89526 17.7029 9.63251C18.0083 10.3698 18.1654 11.1599 18.1654 11.9579C18.1654 12.7559 18.0083 13.5461 17.7029 14.2834C17.3975 15.0206 16.9499 15.6905 16.3856 16.2548C15.246 17.3944 13.7004 18.0346 12.0888 18.0346C10.4772 18.0346 8.93156 17.3944 7.79197 16.2548C6.65238 15.1152 6.01216 13.5696 6.01216 11.9579C6.01216 10.3463 6.65238 8.8007 7.79197 7.66111ZM19.5131 6.78627C19.653 6.65436 19.7649 6.49574 19.8423 6.3198C19.9198 6.14386 19.9611 5.95416 19.9639 5.76196C19.9667 5.56975 19.9309 5.37894 19.8587 5.20081C19.7864 5.02269 19.6791 4.86087 19.5432 4.72495C19.4073 4.58902 19.2455 4.48175 19.0673 4.40949C18.8892 4.33722 18.6984 4.30143 18.5062 4.30423C18.314 4.30703 18.1243 4.34837 17.9483 4.4258C17.7724 4.50323 17.6138 4.61517 17.4819 4.755C17.2253 5.02694 17.0849 5.38815 17.0903 5.76196C17.0958 6.13576 17.2467 6.49273 17.5111 6.75708C17.7754 7.02143 18.1324 7.17235 18.5062 7.17779C18.88 7.18324 19.2412 7.0428 19.5131 6.78627Z" fill="black"/>
</svg>
