<svg width="121" height="121" viewBox="0 0 121 121" fill="none" xmlns="http://www.w3.org/2000/svg">
<g filter="url(#filter0_ddii_3607:8575)">
<circle cx="62" cy="62" r="50" fill="#F2F3F8"/>
<circle cx="62" cy="62" r="50.1" stroke="url(#paint0_linear_3607:8575)" stroke-width="0.2"/>
</g>
<g filter="url(#filter1_ddii_3607:8575)">
<path d="M45 56.1263C45 45.2025 45 39.7405 48.5405 37.7278C52.081 35.715 56.7743 38.5088 66.161 44.0964L75.1144 49.426C84.0037 54.7175 88.4484 57.3632 88.4765 61.3097C88.5046 65.2561 84.0981 67.9649 75.2851 73.3826L66.3318 78.8866C56.8892 84.6913 52.1679 87.5936 48.5839 85.5898C45 83.586 45 78.044 45 66.9599V56.1263Z" fill="#3E3E3E"/>
<path d="M45.0694 56.1263C45.0694 50.6621 45.0696 46.5718 45.5113 43.5956C45.9528 40.6199 46.8328 38.7785 48.5748 37.7882C50.3168 36.7979 52.3492 36.9835 55.132 38.1262C57.9154 39.2691 61.4301 41.3611 66.1255 44.156L75.0788 49.4856C79.5255 52.1326 82.8536 54.1139 85.0745 55.926C87.2947 57.7376 88.3932 59.3681 88.4071 61.3102C88.4209 63.2523 87.3457 64.8982 85.1516 66.7412C82.9567 68.5849 79.6573 70.6134 75.2488 73.3235L66.2954 78.8274C61.5721 81.731 58.0363 83.9044 55.2336 85.1025C52.4312 86.3006 50.3811 86.5151 48.6178 85.5292C46.8546 84.5434 45.9637 82.6846 45.5167 79.6698C45.0696 76.6546 45.0694 72.5043 45.0694 66.9599V56.1263Z" stroke="white" stroke-opacity="0.47" stroke-width="0.138889"/>
</g>
<defs>
<filter id="filter0_ddii_3607:8575" x="0.800781" y="0.799805" width="119.398" height="119.4" filterUnits="userSpaceOnUse" color-interpolation-filters="sRGB">
<feFlood flood-opacity="0" result="BackgroundImageFix"/>
<feColorMatrix in="SourceAlpha" type="matrix" values="0 0 0 0 0 0 0 0 0 0 0 0 0 0 0 0 0 0 127 0" result="hardAlpha"/>
<feOffset dx="2" dy="2"/>
<feGaussianBlur stdDeviation="3"/>
<feColorMatrix type="matrix" values="0 0 0 0 0 0 0 0 0 0 0 0 0 0 0 0 0 0 0.25 0"/>
<feBlend mode="normal" in2="BackgroundImageFix" result="effect1_dropShadow_3607:8575"/>
<feColorMatrix in="SourceAlpha" type="matrix" values="0 0 0 0 0 0 0 0 0 0 0 0 0 0 0 0 0 0 127 0" result="hardAlpha"/>
<feOffset dx="-3" dy="-3"/>
<feGaussianBlur stdDeviation="4"/>
<feColorMatrix type="matrix" values="0 0 0 0 0 0 0 0 0 0 0 0 0 0 0 0 0 0 0.25 0"/>
<feBlend mode="normal" in2="effect1_dropShadow_3607:8575" result="effect2_dropShadow_3607:8575"/>
<feBlend mode="normal" in="SourceGraphic" in2="effect2_dropShadow_3607:8575" result="shape"/>
<feColorMatrix in="SourceAlpha" type="matrix" values="0 0 0 0 0 0 0 0 0 0 0 0 0 0 0 0 0 0 127 0" result="hardAlpha"/>
<feOffset dx="-1.5" dy="-1.5"/>
<feGaussianBlur stdDeviation="0.75"/>
<feComposite in2="hardAlpha" operator="arithmetic" k2="-1" k3="1"/>
<feColorMatrix type="matrix" values="0 0 0 0 1 0 0 0 0 1 0 0 0 0 1 0 0 0 1 0"/>
<feBlend mode="normal" in2="shape" result="effect3_innerShadow_3607:8575"/>
<feColorMatrix in="SourceAlpha" type="matrix" values="0 0 0 0 0 0 0 0 0 0 0 0 0 0 0 0 0 0 127 0" result="hardAlpha"/>
<feOffset dx="1.5" dy="1.5"/>
<feGaussianBlur stdDeviation="0.75"/>
<feComposite in2="hardAlpha" operator="arithmetic" k2="-1" k3="1"/>
<feColorMatrix type="matrix" values="0 0 0 0 0 0 0 0 0 0 0 0 0 0 0 0 0 0 0.09 0"/>
<feBlend mode="normal" in2="effect3_innerShadow_3607:8575" result="effect4_innerShadow_3607:8575"/>
</filter>
<filter id="filter1_ddii_3607:8575" x="33" y="25.0762" width="68.4766" height="74.6455" filterUnits="userSpaceOnUse" color-interpolation-filters="sRGB">
<feFlood flood-opacity="0" result="BackgroundImageFix"/>
<feColorMatrix in="SourceAlpha" type="matrix" values="0 0 0 0 0 0 0 0 0 0 0 0 0 0 0 0 0 0 127 0" result="hardAlpha"/>
<feOffset dx="3" dy="3.5"/>
<feGaussianBlur stdDeviation="5"/>
<feColorMatrix type="matrix" values="0 0 0 0 0 0 0 0 0 0 0 0 0 0 0 0 0 0 0.05 0"/>
<feBlend mode="normal" in2="BackgroundImageFix" result="effect1_dropShadow_3607:8575"/>
<feColorMatrix in="SourceAlpha" type="matrix" values="0 0 0 0 0 0 0 0 0 0 0 0 0 0 0 0 0 0 127 0" result="hardAlpha"/>
<feOffset dx="-4" dy="-4"/>
<feGaussianBlur stdDeviation="4"/>
<feColorMatrix type="matrix" values="0 0 0 0 1 0 0 0 0 1 0 0 0 0 1 0 0 0 0.7 0"/>
<feBlend mode="normal" in2="effect1_dropShadow_3607:8575" result="effect2_dropShadow_3607:8575"/>
<feBlend mode="normal" in="SourceGraphic" in2="effect2_dropShadow_3607:8575" result="shape"/>
<feColorMatrix in="SourceAlpha" type="matrix" values="0 0 0 0 0 0 0 0 0 0 0 0 0 0 0 0 0 0 127 0" result="hardAlpha"/>
<feOffset dx="4" dy="4"/>
<feGaussianBlur stdDeviation="5.25"/>
<feComposite in2="hardAlpha" operator="arithmetic" k2="-1" k3="1"/>
<feColorMatrix type="matrix" values="0 0 0 0 0 0 0 0 0 0 0 0 0 0 0 0 0 0 0.4 0"/>
<feBlend mode="normal" in2="shape" result="effect3_innerShadow_3607:8575"/>
<feColorMatrix in="SourceAlpha" type="matrix" values="0 0 0 0 0 0 0 0 0 0 0 0 0 0 0 0 0 0 127 0" result="hardAlpha"/>
<feOffset dx="-4" dy="-4"/>
<feGaussianBlur stdDeviation="6"/>
<feComposite in2="hardAlpha" operator="arithmetic" k2="-1" k3="1"/>
<feColorMatrix type="matrix" values="0 0 0 0 1 0 0 0 0 1 0 0 0 0 1 0 0 0 0.3 0"/>
<feBlend mode="normal" in2="effect3_innerShadow_3607:8575" result="effect4_innerShadow_3607:8575"/>
</filter>
<linearGradient id="paint0_linear_3607:8575" x1="5.05556" y1="5.05556" x2="135.51" y2="128.774" gradientUnits="userSpaceOnUse">
<stop stop-color="white"/>
<stop offset="1" stop-color="white" stop-opacity="0"/>
</linearGradient>
</defs>
</svg>
