<svg width="24" height="25" viewBox="0 0 24 25" fill="none" xmlns="http://www.w3.org/2000/svg">
<path d="M14.0156 14.9844L17.4844 11.5156L14.0156 8V10.4844H9C8.71875 10.4844 8.48438 10.5938 8.29688 10.8125C8.10938 11 8.01562 11.2344 8.01562 11.5156V15.5H9.98438V12.5H14.0156V14.9844ZM21.7031 11.7969C22.1406 12.2969 22.1406 12.7656 21.7031 13.2031L12.7031 22.2031C12.5156 22.3906 12.2812 22.4844 12 22.4844C11.7188 22.4844 11.4844 22.3906 11.2969 22.2031L2.29688 13.2031C2.10938 13.0156 2.01562 12.7812 2.01562 12.5C2.01562 12.2188 2.10938 11.9844 2.29688 11.7969L11.2969 2.79688C11.4844 2.60938 11.7188 2.51562 12 2.51562C12.2812 2.51562 12.5156 2.60938 12.7031 2.79688L21.7031 11.7969Z" fill="#3E3E3E"/>
</svg>
