<svg width="124" height="19" viewBox="0 0 124 19" fill="none" xmlns="http://www.w3.org/2000/svg">
<path fill-rule="evenodd" clip-rule="evenodd" d="M4.94692 18.5C4.53392 18.5 4.12392 18.37 3.77292 18.114C3.16692 17.67 2.86992 16.937 2.99892 16.199L3.69492 12.189C3.72092 12.04 3.66992 11.889 3.55992 11.783L0.603916 8.943C0.0599161 8.422 -0.135084 7.652 0.0949161 6.937C0.326916 6.214 0.940916 5.697 1.69792 5.589L5.78592 5C5.94392 4.978 6.07992 4.881 6.14792 4.743L7.97492 1.091C8.31192 0.418 8.99192 0 9.74992 0C10.5079 0 11.1879 0.418 11.5249 1.091L13.3529 4.742C13.4219 4.881 13.5569 4.978 13.7139 5L17.8019 5.589C18.5589 5.697 19.1729 6.214 19.4049 6.937C19.6349 7.652 19.4389 8.422 18.8949 8.943L15.9389 11.783C15.8289 11.889 15.7789 12.04 15.8049 12.188L16.5019 16.199C16.6299 16.938 16.3329 17.671 15.7259 18.114C15.1109 18.565 14.3099 18.626 13.6309 18.272L9.97792 16.379C9.83492 16.305 9.66392 16.305 9.52092 16.379L5.86792 18.273C5.57592 18.425 5.26092 18.5 4.94692 18.5Z" fill="#F2C94C"/>
<path fill-rule="evenodd" clip-rule="evenodd" d="M30.9469 18.5C30.5339 18.5 30.1239 18.37 29.7729 18.114C29.1669 17.67 28.8699 16.937 28.9989 16.199L29.6949 12.189C29.7209 12.04 29.6699 11.889 29.5599 11.783L26.6039 8.943C26.0599 8.422 25.8649 7.652 26.0949 6.937C26.3269 6.214 26.9409 5.697 27.6979 5.589L31.7859 5C31.9439 4.978 32.0799 4.881 32.1479 4.743L33.9749 1.091C34.3119 0.418 34.9919 0 35.7499 0C36.5079 0 37.1879 0.418 37.5249 1.091L39.3529 4.742C39.4219 4.881 39.5569 4.978 39.7139 5L43.8019 5.589C44.5589 5.697 45.1729 6.214 45.4049 6.937C45.6349 7.652 45.4389 8.422 44.8949 8.943L41.9389 11.783C41.8289 11.889 41.7789 12.04 41.8049 12.188L42.5019 16.199C42.6299 16.938 42.3329 17.671 41.7259 18.114C41.1109 18.565 40.3099 18.626 39.6309 18.272L35.9779 16.379C35.8349 16.305 35.6639 16.305 35.5209 16.379L31.8679 18.273C31.5759 18.425 31.2609 18.5 30.9469 18.5Z" fill="#F2C94C"/>
<path fill-rule="evenodd" clip-rule="evenodd" d="M56.9469 18.5C56.5339 18.5 56.1239 18.37 55.7729 18.114C55.1669 17.67 54.8699 16.937 54.9989 16.199L55.6949 12.189C55.7209 12.04 55.6699 11.889 55.5599 11.783L52.6039 8.943C52.0599 8.422 51.8649 7.652 52.0949 6.937C52.3269 6.214 52.9409 5.697 53.6979 5.589L57.7859 5C57.9439 4.978 58.0799 4.881 58.1479 4.743L59.9749 1.091C60.3119 0.418 60.9919 0 61.7499 0C62.5079 0 63.1879 0.418 63.5249 1.091L65.3529 4.742C65.4219 4.881 65.5569 4.978 65.7139 5L69.8019 5.589C70.5589 5.697 71.1729 6.214 71.4049 6.937C71.6349 7.652 71.4389 8.422 70.8949 8.943L67.9389 11.783C67.8289 11.889 67.7789 12.04 67.8049 12.188L68.5019 16.199C68.6299 16.938 68.3329 17.671 67.7259 18.114C67.1109 18.565 66.3099 18.626 65.6309 18.272L61.9779 16.379C61.8349 16.305 61.6639 16.305 61.5209 16.379L57.8679 18.273C57.5759 18.425 57.2609 18.5 56.9469 18.5Z" fill="#F2C94C"/>
<path fill-rule="evenodd" clip-rule="evenodd" d="M82.9469 18.5C82.5339 18.5 82.1239 18.37 81.7729 18.114C81.1669 17.67 80.8699 16.937 80.9989 16.199L81.6949 12.189C81.7209 12.04 81.6699 11.889 81.5599 11.783L78.6039 8.943C78.0599 8.422 77.8649 7.652 78.0949 6.937C78.3269 6.214 78.9409 5.697 79.6979 5.589L83.7859 5C83.9439 4.978 84.0799 4.881 84.1479 4.743L85.9749 1.091C86.3119 0.418 86.9919 0 87.7499 0C88.5079 0 89.1879 0.418 89.5249 1.091L91.3529 4.742C91.4219 4.881 91.5569 4.978 91.7139 5L95.8019 5.589C96.5589 5.697 97.1729 6.214 97.4049 6.937C97.6349 7.652 97.4389 8.422 96.8949 8.943L93.9389 11.783C93.8289 11.889 93.7789 12.04 93.8049 12.188L94.5019 16.199C94.6299 16.938 94.3329 17.671 93.7259 18.114C93.1109 18.565 92.3099 18.626 91.6309 18.272L87.9779 16.379C87.8349 16.305 87.6639 16.305 87.5209 16.379L83.8679 18.273C83.5759 18.425 83.2609 18.5 82.9469 18.5Z" fill="#F2C94C"/>
<path fill-rule="evenodd" clip-rule="evenodd" d="M108.947 18.5C108.534 18.5 108.124 18.37 107.773 18.114C107.167 17.67 106.87 16.937 106.999 16.199L107.695 12.189C107.721 12.04 107.67 11.889 107.56 11.783L104.604 8.943C104.06 8.422 103.865 7.652 104.095 6.937C104.327 6.214 104.941 5.697 105.698 5.589L109.786 5C109.944 4.978 110.08 4.881 110.148 4.743L111.975 1.091C112.312 0.418 112.992 0 113.75 0C114.508 0 115.188 0.418 115.525 1.091L117.353 4.742C117.422 4.881 117.557 4.978 117.714 5L121.802 5.589C122.559 5.697 123.173 6.214 123.405 6.937C123.635 7.652 123.439 8.422 122.895 8.943L119.939 11.783C119.829 11.889 119.779 12.04 119.805 12.188L120.502 16.199C120.63 16.938 120.333 17.671 119.726 18.114C119.111 18.565 118.31 18.626 117.631 18.272L113.978 16.379C113.835 16.305 113.664 16.305 113.521 16.379L109.868 18.273C109.576 18.425 109.261 18.5 108.947 18.5Z" fill="#F2C94C"/>
</svg>
