<svg width="48" height="48" viewBox="0 0 48 48" fill="none" xmlns="http://www.w3.org/2000/svg">
<path d="M19.2969 35.7031L40.2969 14.7031L37.0156 11.3125L19.2969 29.0312L10.9844 20.7187L7.70312 24L19.2969 35.7031ZM7.48437 7.59375C12.0781 3 17.5833 0.703125 24 0.703125C30.4167 0.703125 35.8854 3 40.4062 7.59375C45 12.1146 47.2969 17.5833 47.2969 24C47.2969 30.4167 45 35.9219 40.4062 40.5156C35.8854 45.0365 30.4167 47.2969 24 47.2969C17.5833 47.2969 12.0781 45.0365 7.48437 40.5156C2.96354 35.9219 0.703125 30.4167 0.703125 24C0.703125 17.5833 2.96354 12.1146 7.48437 7.59375Z" fill="url(#paint0_radial_4148:978)"/>
<defs>
<radialGradient id="paint0_radial_4148:978" cx="0" cy="0" r="1" gradientUnits="userSpaceOnUse" gradientTransform="translate(23.125 26.5238) rotate(51.978) scale(40.6629 28.6012)">
<stop stop-color="#292828"/>
<stop offset="1" stop-color="#343434"/>
</radialGradient>
</defs>
</svg>
