<svg width="21" height="20" viewBox="0 0 21 20" fill="none" xmlns="http://www.w3.org/2000/svg">
<path d="M8.48438 15.0156L17.4844 6.01562L16.0781 4.5625L8.48438 12.1562L4.92188 8.59375L3.51562 10L8.48438 15.0156ZM3.42188 2.96875C5.39062 1 7.75 0.015625 10.5 0.015625C13.25 0.015625 15.5938 1 17.5312 2.96875C19.5 4.90625 20.4844 7.25 20.4844 10C20.4844 12.75 19.5 15.1094 17.5312 17.0781C15.5938 19.0156 13.25 19.9844 10.5 19.9844C7.75 19.9844 5.39062 19.0156 3.42188 17.0781C1.48438 15.1094 0.515625 12.75 0.515625 10C0.515625 7.25 1.48438 4.90625 3.42188 2.96875Z" fill="#27AE60"/>
<defs>
<linearGradient id="paint0_linear_3873:2431" x1="0.515624" y1="-1.58187" x2="26.29" y2="9.74195" gradientUnits="userSpaceOnUse">
<stop stop-color="#27AE60"/>
<stop offset="1" stop-color="#289B59"/>
</linearGradient>
</defs>
</svg>
