<svg width="18" height="16" viewBox="0 0 18 16" fill="none" xmlns="http://www.w3.org/2000/svg">
<path d="M16.2415 0.501563C16.0315 0.516838 15.8254 0.566092 15.6313 0.647405H15.6287C15.4423 0.721306 14.5561 1.09408 13.2089 1.65914L8.38107 3.69241C4.91685 5.15082 1.51149 6.587 1.51149 6.587L1.55204 6.5713C1.55204 6.5713 1.31725 6.64848 1.07201 6.81655C0.920492 6.91297 0.790115 7.03911 0.688763 7.18737C0.568428 7.36395 0.471636 7.63405 0.507606 7.9133C0.566466 8.38549 0.872536 8.66867 1.09228 8.82498C1.31464 8.98324 1.52653 9.05714 1.52653 9.05714H1.53176L4.72523 10.133C4.86845 10.5927 5.69838 13.3212 5.89784 13.9497C6.01556 14.3251 6.13001 14.5599 6.27324 14.7391C6.34256 14.8306 6.42366 14.9071 6.5211 14.9686C6.57176 14.9981 6.62578 15.0214 6.68199 15.0379L6.64929 15.0301C6.6591 15.0327 6.66694 15.0406 6.67414 15.0432C6.7003 15.0504 6.71796 15.053 6.75131 15.0582C7.25685 15.2113 7.66298 14.8973 7.66298 14.8973L7.68587 14.879L9.57134 13.1623L12.7315 15.5866L12.8034 15.6174C13.462 15.9064 14.129 15.7456 14.4815 15.4617C14.8367 15.1759 14.9747 14.8104 14.9747 14.8104L14.9976 14.7515L17.4396 2.24119C17.5089 1.93251 17.5266 1.64344 17.45 1.36288C17.3711 1.07893 17.1889 0.834714 16.9393 0.678142C16.7296 0.550688 16.4865 0.489169 16.2415 0.501563ZM16.1754 1.84226C16.1728 1.88346 16.1806 1.87888 16.1623 1.95801V1.96521L13.7432 14.3454C13.7327 14.363 13.7151 14.4016 13.6667 14.4402C13.6157 14.4807 13.5751 14.5062 13.3626 14.4219L9.49744 11.4586L7.16267 13.5867L7.65317 10.4541L13.9682 4.56811C14.2285 4.32613 14.1415 4.27512 14.1415 4.27512C14.1598 3.97821 13.7484 4.18814 13.7484 4.18814L5.78536 9.12124L5.78274 9.10816L1.96602 7.82305V7.82044L1.95621 7.81848C1.9629 7.81625 1.96945 7.81363 1.97583 7.81063L1.99676 7.80016L2.01703 7.79297C2.01703 7.79297 5.425 6.35679 8.88922 4.89838C10.6236 4.16787 12.3711 3.43212 13.7151 2.86445C15.059 2.30005 16.0524 1.88607 16.1087 1.86384C16.1623 1.84291 16.1368 1.84291 16.1754 1.84291V1.84226Z" fill="url(#paint0_linear_3592:3672)"/>
<defs>
<linearGradient id="paint0_linear_3592:3672" x1="19.1528" y1="17.6788" x2="1.20845" y2="-4.38917" gradientUnits="userSpaceOnUse">
<stop stop-color="#FAFAFA"/>
<stop offset="1" stop-color="#F1F1F1"/>
</linearGradient>
</defs>
</svg>
