<svg width="21" height="23" viewBox="0 0 21 23" fill="none" xmlns="http://www.w3.org/2000/svg">
<path d="M10.7954 0.154585C12.0132 0.135742 13.224 0.146908 14.4334 0.135742C14.5067 1.56011 15.019 3.01099 16.0616 4.01802C17.1021 5.05018 18.5739 5.52264 20.006 5.68246V9.42935C18.664 9.38538 17.3157 9.10623 16.0979 8.52839C15.5675 8.28832 15.0734 7.97916 14.5898 7.66303C14.5835 10.3819 14.6009 13.0974 14.5723 15.8051C14.4997 17.106 14.0706 18.4005 13.3141 19.4725C12.097 21.2569 9.9845 22.4203 7.8148 22.4566C6.48395 22.5327 5.1545 22.1698 4.02045 21.5012C2.14107 20.393 0.818601 18.3642 0.625987 16.1869C0.601726 15.7257 0.598 15.2638 0.614821 14.8023C0.782311 13.0318 1.65815 11.338 3.01761 10.1858C4.55852 8.84383 6.71704 8.20458 8.73809 8.58283C8.75693 9.96113 8.7018 11.338 8.7018 12.7163C7.77851 12.4177 6.6996 12.5014 5.89285 13.0618C5.30262 13.4506 4.85658 14.0227 4.62342 14.6899C4.4308 15.1617 4.48594 15.6858 4.4971 16.1869C4.71833 17.7138 6.18666 18.9972 7.75409 18.8583C8.79322 18.8472 9.78909 18.2442 10.3306 17.3614C10.5058 17.0522 10.7019 16.7361 10.7124 16.3725C10.8038 14.7081 10.7675 13.0506 10.7787 11.3862C10.7864 7.63511 10.7675 3.8945 10.7961 0.155283L10.7954 0.154585Z" fill="black"/>
</svg>
