<svg width="24" height="24" viewBox="0 0 24 24" fill="none" xmlns="http://www.w3.org/2000/svg">
<path d="M18.1957 5.64302C17.7772 5.25749 16.0835 4.02841 12.3073 4.01194C12.3073 4.01194 7.85562 3.74503 5.68744 5.73528C4.48143 6.94129 4.05636 8.71076 4.01023 10.902C3.9641 13.0933 3.90808 17.199 7.8655 18.3127H7.8688L7.8655 20.013C7.8655 20.013 7.83914 20.7017 8.29387 20.8401C8.84086 21.0114 9.16378 20.4875 9.6877 19.924C9.97437 19.6143 10.3698 19.1595 10.6696 18.8136C13.3782 19.0409 15.4574 18.5203 15.6947 18.4445C16.2417 18.2666 19.3358 17.8712 19.8366 13.7655C20.3573 9.52795 19.5862 6.85232 18.1957 5.64302ZM18.6537 13.4557C18.2286 16.8826 15.721 17.1001 15.2597 17.2484C15.062 17.311 13.2332 17.7657 10.9365 17.6174C10.9365 17.6174 9.22309 19.6835 8.68928 20.2206C8.51464 20.3952 8.32352 20.3787 8.32682 20.0328C8.32682 19.8054 8.34 17.2088 8.34 17.2088C8.3367 17.2088 8.3367 17.2088 8.34 17.2088C4.98558 16.2796 5.18329 12.7835 5.21953 10.9547C5.25578 9.12595 5.60176 7.62667 6.62325 6.61837C8.45862 4.95434 12.2381 5.20147 12.2381 5.20147C15.4311 5.21465 16.96 6.17682 17.3159 6.49974C18.4922 7.50805 19.0919 9.92007 18.6537 13.4557ZM14.0735 10.7933C14.0867 11.0766 13.6616 11.0964 13.6484 10.813C13.6122 10.0881 13.2728 9.73554 12.5742 9.696C12.2908 9.67952 12.3172 9.25445 12.5973 9.27093C13.5166 9.32036 14.0274 9.84757 14.0735 10.7933ZM14.7424 11.1656C14.7753 9.76849 13.9021 8.67452 12.2447 8.5526C11.9646 8.53283 11.9943 8.10776 12.2744 8.12753C14.1855 8.26592 15.2037 9.58067 15.1675 11.1755C15.1642 11.4589 14.7358 11.4457 14.7424 11.1656ZM16.2911 11.6072C16.2944 11.8905 15.866 11.8938 15.866 11.6105C15.8463 8.92494 14.057 7.46192 11.8855 7.44544C11.6055 7.44215 11.6055 7.02037 11.8855 7.02037C14.314 7.03685 16.268 8.71406 16.2911 11.6072ZM15.9187 14.8397V14.8463C15.5629 15.4723 14.8973 16.1643 14.2119 15.9435L14.2053 15.9336C13.51 15.7392 11.8724 14.8957 10.8377 14.0719C10.3039 13.6501 9.81621 13.1526 9.44056 12.6748C9.10117 12.2497 8.75848 11.7456 8.42567 11.1393C7.72381 9.87064 7.56894 9.30388 7.56894 9.30388C7.34817 8.6185 8.03685 7.95289 8.66621 7.59702H8.6728C8.97595 7.43885 9.26592 7.49157 9.46034 7.72552C9.46034 7.72552 9.86893 8.2132 10.0436 8.45374C10.2083 8.67781 10.4291 9.03698 10.5444 9.23798C10.7454 9.59715 10.6202 9.9629 10.4225 10.1145L10.0271 10.4308C9.82609 10.5923 9.85245 10.8921 9.85245 10.8921C9.85245 10.8921 10.439 13.1097 12.6302 13.6699C12.6302 13.6699 12.9301 13.6963 13.0915 13.4953L13.4079 13.0998C13.5595 12.9021 13.9252 12.7769 14.2844 12.9779C14.7688 13.2514 15.3849 13.6765 15.7935 14.062C16.0242 14.2498 16.0769 14.5365 15.9187 14.8397Z" fill="white"/>
</svg>
