<svg width="29" height="21" viewBox="0 0 29 21" fill="none" xmlns="http://www.w3.org/2000/svg">
<path d="M28.4367 10.8686C28.4367 10.8009 28.4367 10.7239 28.4336 10.6347C28.4305 10.3853 28.4244 10.1051 28.4182 9.80648C28.3936 8.94753 28.3505 8.09165 28.2828 7.28503C28.1904 6.17362 28.0549 5.24693 27.8702 4.55115C27.6753 3.82503 27.2932 3.1628 26.7621 2.63064C26.231 2.09848 25.5696 1.71504 24.8439 1.51863C23.9726 1.28465 22.267 1.13995 19.8656 1.05067C18.7234 1.00756 17.5012 0.979857 16.2789 0.964463C15.851 0.958306 15.4538 0.955227 15.0967 0.952148H14.1916C13.8344 0.955227 13.4373 0.958306 13.0093 0.964463C11.7871 0.979857 10.5649 1.00756 9.42266 1.05067C7.02127 1.14303 5.3126 1.28773 4.4444 1.51863C3.71845 1.71456 3.05674 2.09784 2.52559 2.63007C1.99443 3.16231 1.61249 3.8248 1.41804 4.55115C1.23024 5.24693 1.09786 6.17362 1.0055 7.28503C0.937766 8.09165 0.894664 8.94753 0.870035 9.80648C0.860799 10.1051 0.85772 10.3853 0.854641 10.6347C0.854641 10.7239 0.851563 10.8009 0.851563 10.8686V11.041C0.851563 11.1088 0.851562 11.1857 0.854641 11.275C0.85772 11.5244 0.863877 11.8046 0.870035 12.1032C0.894664 12.9621 0.937766 13.818 1.0055 14.6246C1.09786 15.7361 1.23332 16.6627 1.41804 17.3585C1.81212 18.8332 2.96971 19.997 4.4444 20.391C5.3126 20.625 7.02127 20.7697 9.42266 20.859C10.5649 20.9021 11.7871 20.9298 13.0093 20.9452C13.4373 20.9514 13.8344 20.9544 14.1916 20.9575H15.0967C15.4538 20.9544 15.851 20.9514 16.2789 20.9452C17.5012 20.9298 18.7234 20.9021 19.8656 20.859C22.267 20.7666 23.9757 20.6219 24.8439 20.391C26.3185 19.997 27.4761 18.8363 27.8702 17.3585C28.058 16.6627 28.1904 15.7361 28.2828 14.6246C28.3505 13.818 28.3936 12.9621 28.4182 12.1032C28.4275 11.8046 28.4305 11.5244 28.4336 11.275C28.4336 11.1857 28.4367 11.1088 28.4367 11.041V10.8686ZM26.22 11.0287C26.22 11.0934 26.22 11.1642 26.217 11.2473C26.2139 11.4875 26.2077 11.7522 26.2016 12.0385C26.18 12.8575 26.1369 13.6764 26.0723 14.4368C25.9891 15.4282 25.8721 16.241 25.7274 16.7859C25.5366 17.4971 24.9762 18.0605 24.2681 18.2483C23.6216 18.4207 21.993 18.5592 19.7794 18.6423C18.6587 18.6854 17.4519 18.7132 16.2481 18.7285C15.8263 18.7347 15.4354 18.7378 15.0844 18.7378H14.2039L13.0401 18.7285C11.8364 18.7132 10.6326 18.6854 9.50886 18.6423C7.29528 18.5561 5.66357 18.4207 5.02012 18.2483C4.31202 18.0574 3.7517 17.4971 3.56082 16.7859C3.41612 16.241 3.29913 15.4282 3.216 14.4368C3.15135 13.6764 3.11133 12.8575 3.0867 12.0385C3.07746 11.7522 3.07438 11.4844 3.0713 11.2473C3.0713 11.1642 3.06822 11.0903 3.06822 11.0287V10.8809C3.06822 10.8163 3.06822 10.7455 3.0713 10.6624C3.07438 10.4222 3.08054 10.1575 3.0867 9.87113C3.10825 9.0522 3.15135 8.23327 3.216 7.47283C3.29913 6.48149 3.41612 5.66871 3.56082 5.12378C3.7517 4.4126 4.31202 3.8492 5.02012 3.6614C5.66665 3.489 7.29528 3.35045 9.50886 3.26733C10.6295 3.22423 11.8364 3.19652 13.0401 3.18113C13.4619 3.17497 13.8529 3.17189 14.2039 3.17189H15.0844L16.2481 3.18113C17.4519 3.19652 18.6557 3.22423 19.7794 3.26733C21.993 3.35353 23.6247 3.489 24.2681 3.6614C24.9762 3.85228 25.5366 4.4126 25.7274 5.12378C25.8721 5.66871 25.9891 6.48149 26.0723 7.47283C26.1369 8.23327 26.1769 9.0522 26.2016 9.87113C26.2108 10.1575 26.2139 10.4253 26.217 10.6624C26.217 10.7455 26.22 10.8194 26.22 10.8809V11.0287ZM11.9041 15.0803L19.0467 10.924L11.9041 6.82938V15.0803Z" fill="black"/>
</svg>
